# Blender v2.79 (sub 0) OBJ File: ''
# www.blender.org
mtllib dice.mtl
v 0.351075 0.351075 0.496496
v 0.458702 0.190001 0.496496
v 0.190000 0.458702 0.496496
v 0.190000 0.496495 0.458702
v 0.351075 0.496495 0.351076
v 0.458702 0.496496 0.190001
v 0.496496 0.458702 0.190001
v 0.496496 0.351075 0.351075
v 0.496496 0.190000 0.458702
v 0.481536 0.191567 0.481536
v 0.439878 0.333416 0.439878
v 0.191567 0.481536 0.481536
v 0.333416 0.439878 0.439878
v 0.481536 0.481536 0.191567
v 0.439878 0.439877 0.333416
v 0.500000 0.178083 0.429931
v 0.500000 0.429931 0.178083
v 0.500000 0.329055 0.329055
v 0.178083 0.500000 0.429931
v 0.429931 0.500000 0.178083
v 0.329055 0.500000 0.329055
v 0.429931 0.178083 0.500000
v 0.178083 0.429931 0.500000
v 0.329055 0.329055 0.500000
v 0.000000 0.500000 0.465354
v -0.351075 0.351075 0.496496
v -0.458702 0.190001 0.496496
v -0.190000 0.458702 0.496496
v -0.190000 0.496495 0.458702
v 0.000000 0.491436 0.491437
v -0.351075 0.496495 0.351076
v -0.458702 0.496496 0.190001
v -0.496496 0.458702 0.190001
v -0.496496 0.351075 0.351075
v -0.496496 0.190000 0.458702
v -0.481536 0.191567 0.481536
v -0.439878 0.333416 0.439878
v -0.191567 0.481536 0.481536
v -0.333416 0.439878 0.439878
v -0.481536 0.481536 0.191567
v -0.439878 0.439877 0.333416
v -0.500000 0.178083 0.429931
v -0.500000 0.429931 0.178083
v -0.500000 0.329055 0.329055
v -0.178083 0.500000 0.429931
v -0.429931 0.500000 0.178083
v -0.329055 0.500000 0.329055
v -0.000000 0.465354 0.500000
v -0.429931 0.178083 0.500000
v -0.178083 0.429931 0.500000
v -0.329055 0.329055 0.500000
v 0.351075 -0.351075 0.496496
v 0.458702 -0.190001 0.496496
v 0.190000 -0.458702 0.496496
v 0.190000 -0.496495 0.458702
v 0.351075 -0.496495 0.351076
v 0.458702 -0.496496 0.190001
v 0.491437 0.000000 0.491436
v 0.496496 -0.458702 0.190001
v 0.496496 -0.351075 0.351075
v 0.496496 -0.190000 0.458702
v 0.481536 -0.191567 0.481536
v 0.439878 -0.333416 0.439878
v 0.191567 -0.481536 0.481536
v 0.333416 -0.439878 0.439878
v 0.481536 -0.481536 0.191567
v 0.439878 -0.439877 0.333416
v 0.500000 -0.000000 0.465354
v 0.500000 -0.178083 0.429931
v 0.500000 -0.429931 0.178083
v 0.500000 -0.329055 0.329055
v 0.178083 -0.500000 0.429931
v 0.429931 -0.500000 0.178083
v 0.329055 -0.500000 0.329055
v 0.465354 0.000000 0.500000
v 0.429931 -0.178083 0.500000
v 0.178083 -0.429931 0.500000
v 0.329055 -0.329055 0.500000
v 0.000000 -0.500000 0.465354
v -0.351075 -0.351075 0.496496
v -0.458702 -0.190001 0.496496
v -0.190000 -0.458702 0.496496
v -0.190000 -0.496495 0.458702
v 0.000000 -0.491436 0.491437
v -0.351075 -0.496495 0.351076
v -0.458702 -0.496496 0.190001
v -0.491437 0.000000 0.491436
v -0.496496 -0.458702 0.190001
v -0.496496 -0.351075 0.351075
v -0.496496 -0.190000 0.458702
v -0.481536 -0.191567 0.481536
v -0.439878 -0.333416 0.439878
v -0.191567 -0.481536 0.481536
v -0.333416 -0.439878 0.439878
v -0.481536 -0.481536 0.191567
v -0.439878 -0.439877 0.333416
v -0.500000 -0.000000 0.465354
v -0.500000 -0.178083 0.429931
v -0.500000 -0.429931 0.178083
v -0.500000 -0.329055 0.329055
v -0.178083 -0.500000 0.429931
v -0.429931 -0.500000 0.178083
v -0.329055 -0.500000 0.329055
v -0.465354 0.000000 0.500000
v -0.000000 -0.465354 0.500000
v -0.429931 -0.178083 0.500000
v -0.178083 -0.429931 0.500000
v -0.329055 -0.329055 0.500000
v 0.351075 0.351075 -0.496496
v 0.458702 0.190001 -0.496496
v 0.190000 0.458702 -0.496496
v 0.190000 0.496495 -0.458702
v 0.351075 0.496495 -0.351076
v 0.458702 0.496496 -0.190001
v 0.496496 0.458702 -0.190001
v 0.491437 0.491437 0.000000
v 0.496496 0.351075 -0.351075
v 0.496496 0.190000 -0.458702
v 0.481536 0.191567 -0.481536
v 0.439878 0.333416 -0.439878
v 0.191567 0.481536 -0.481536
v 0.333416 0.439878 -0.439878
v 0.481536 0.481536 -0.191567
v 0.439878 0.439877 -0.333416
v 0.500000 0.465354 0.000000
v 0.500000 0.178083 -0.429931
v 0.500000 0.429931 -0.178083
v 0.500000 0.329055 -0.329055
v 0.465354 0.500000 0.000000
v 0.178083 0.500000 -0.429931
v 0.429931 0.500000 -0.178083
v 0.329055 0.500000 -0.329055
v 0.429931 0.178083 -0.500000
v 0.178083 0.429931 -0.500000
v 0.329055 0.329055 -0.500000
v 0.000000 0.500000 -0.465354
v -0.351075 0.351075 -0.496496
v -0.458702 0.190001 -0.496496
v -0.190000 0.458702 -0.496496
v -0.190000 0.496495 -0.458702
v 0.000000 0.491436 -0.491437
v -0.351075 0.496495 -0.351076
v -0.458702 0.496496 -0.190001
v -0.496496 0.458702 -0.190001
v -0.491437 0.491437 0.000000
v -0.496496 0.351075 -0.351075
v -0.496496 0.190000 -0.458702
v -0.481536 0.191567 -0.481536
v -0.439878 0.333416 -0.439878
v -0.191567 0.481536 -0.481536
v -0.333416 0.439878 -0.439878
v -0.481536 0.481536 -0.191567
v -0.439878 0.439877 -0.333416
v -0.500000 0.465354 0.000000
v -0.500000 0.178083 -0.429931
v -0.500000 0.429931 -0.178083
v -0.500000 0.329055 -0.329055
v -0.465354 0.500000 0.000000
v -0.178083 0.500000 -0.429931
v -0.429931 0.500000 -0.178083
v -0.329055 0.500000 -0.329055
v -0.000000 0.465354 -0.500000
v -0.429931 0.178083 -0.500000
v -0.178083 0.429931 -0.500000
v -0.329055 0.329055 -0.500000
v 0.351075 -0.351075 -0.496496
v 0.458702 -0.190001 -0.496496
v 0.190000 -0.458702 -0.496496
v 0.190000 -0.496495 -0.458702
v 0.351075 -0.496495 -0.351076
v 0.458702 -0.496496 -0.190001
v 0.491437 0.000000 -0.491436
v 0.496496 -0.458702 -0.190001
v 0.491437 -0.491437 0.000000
v 0.496496 -0.351075 -0.351075
v 0.496496 -0.190000 -0.458702
v 0.481536 -0.191567 -0.481536
v 0.439878 -0.333416 -0.439878
v 0.191567 -0.481536 -0.481536
v 0.333416 -0.439878 -0.439878
v 0.481536 -0.481536 -0.191567
v 0.439878 -0.439877 -0.333416
v 0.500000 -0.000000 -0.465354
v 0.500000 -0.465354 0.000000
v 0.500000 -0.178083 -0.429931
v 0.500000 -0.429931 -0.178083
v 0.500000 -0.329055 -0.329055
v 0.465354 -0.500000 0.000000
v 0.178083 -0.500000 -0.429931
v 0.429931 -0.500000 -0.178083
v 0.329055 -0.500000 -0.329055
v 0.465354 0.000000 -0.500000
v 0.429931 -0.178083 -0.500000
v 0.178083 -0.429931 -0.500000
v 0.329055 -0.329055 -0.500000
v 0.000000 -0.500000 -0.465354
v -0.351075 -0.351075 -0.496496
v -0.458702 -0.190001 -0.496496
v -0.190000 -0.458702 -0.496496
v -0.190000 -0.496495 -0.458702
v 0.000000 -0.491436 -0.491437
v -0.351075 -0.496495 -0.351076
v -0.458702 -0.496496 -0.190001
v -0.491437 0.000000 -0.491436
v -0.496496 -0.458702 -0.190001
v -0.491437 -0.491437 0.000000
v -0.496496 -0.351075 -0.351075
v -0.496496 -0.190000 -0.458702
v -0.481536 -0.191567 -0.481536
v -0.439878 -0.333416 -0.439878
v -0.191567 -0.481536 -0.481536
v -0.333416 -0.439878 -0.439878
v -0.481536 -0.481536 -0.191567
v -0.439878 -0.439877 -0.333416
v -0.500000 -0.000000 -0.465354
v -0.500000 -0.465354 0.000000
v -0.500000 -0.178083 -0.429931
v -0.500000 -0.429931 -0.178083
v -0.500000 -0.329055 -0.329055
v -0.465354 -0.500000 0.000000
v -0.178083 -0.500000 -0.429931
v -0.429931 -0.500000 -0.178083
v -0.329055 -0.500000 -0.329055
v -0.465354 0.000000 -0.500000
v -0.000000 -0.465354 -0.500000
v -0.429931 -0.178083 -0.500000
v -0.178083 -0.429931 -0.500000
v -0.329055 -0.329055 -0.500000
v -0.499728 -0.218194 0.117284
v -0.499728 -0.117284 0.218194
v -0.499728 0.218195 -0.117284
v -0.499728 0.117284 -0.218195
v -0.000000 0.098025 0.499728
v 0.098025 -0.000000 0.499728
v -0.000000 -0.098025 0.499728
v -0.098025 -0.000000 0.499728
v -0.000000 -0.499728 0.098025
v 0.098025 -0.499728 -0.000000
v -0.000000 -0.499728 -0.098025
v -0.098025 -0.499728 -0.000000
v 0.218194 -0.499728 0.316220
v 0.316220 -0.499728 0.218194
v 0.218194 -0.499728 0.120169
v 0.120169 -0.499728 0.218194
v -0.218195 -0.499728 -0.120170
v -0.120170 -0.499728 -0.218195
v -0.218195 -0.499728 -0.316220
v -0.316220 -0.499728 -0.218195
v 0.499728 0.218195 0.316220
v 0.499728 0.316220 0.218194
v 0.499728 0.218194 0.120169
v 0.499728 0.120169 0.218194
v 0.499728 -0.218194 -0.120170
v 0.499728 -0.120169 -0.218195
v 0.499728 -0.218195 -0.316220
v 0.499728 -0.316220 -0.218195
v 0.499728 -0.316220 0.218195
v 0.499728 -0.218194 0.316220
v 0.499728 -0.120169 0.218194
v 0.499728 -0.218194 0.120169
v 0.499728 0.120170 -0.218195
v 0.499728 0.218195 -0.120170
v 0.499728 0.316220 -0.218195
v 0.499728 0.218195 -0.316220
v -0.218195 0.499728 0.316220
v -0.316220 0.499728 0.218194
v -0.218194 0.499728 0.120169
v -0.120169 0.499728 0.218194
v 0.218194 0.499728 -0.120170
v 0.120169 0.499728 -0.218195
v 0.218195 0.499728 -0.316220
v 0.316220 0.499728 -0.218195
v 0.316219 0.499728 0.218195
v 0.218194 0.499728 0.316220
v 0.120169 0.499728 0.218194
v 0.218194 0.499728 0.120169
v -0.120170 0.499728 -0.218195
v -0.218195 0.499728 -0.120170
v -0.316220 0.499728 -0.218195
v -0.218195 0.499728 -0.316220
v -0.499728 -0.218195 0.316220
v -0.499728 -0.316220 0.218194
v -0.499728 -0.218194 0.120169
v -0.499728 -0.120169 0.218194
v -0.499728 0.218195 -0.120170
v -0.499728 0.120169 -0.218195
v -0.499728 0.218195 -0.316220
v -0.499728 0.316220 -0.218195
v -0.218195 0.316219 -0.499728
v -0.316220 0.218194 -0.499728
v -0.218194 0.120169 -0.499728
v -0.120169 0.218194 -0.499728
v 0.218195 -0.120170 -0.499728
v 0.120170 -0.218195 -0.499728
v 0.218195 -0.316220 -0.499728
v 0.316220 -0.218195 -0.499728
v 0.316219 0.218194 -0.499728
v 0.218194 0.316219 -0.499728
v 0.120169 0.218194 -0.499728
v 0.218194 0.120169 -0.499728
v -0.120170 -0.218194 -0.499728
v -0.218195 -0.120169 -0.499728
v -0.316220 -0.218195 -0.499728
v -0.218195 -0.316220 -0.499728
v -0.218195 0.098025 -0.499728
v -0.316220 -0.000000 -0.499728
v -0.218194 -0.098025 -0.499728
v -0.120169 -0.000000 -0.499728
v 0.316219 -0.000000 -0.499728
v 0.218194 0.098025 -0.499728
v 0.120169 -0.000000 -0.499728
v 0.218194 -0.098025 -0.499728
v 0.069314 0.069314 0.499728
v -0.069314 0.069314 0.499728
v 0.069314 -0.069314 0.499728
v -0.069314 -0.069314 0.499728
v 0.069314 -0.499728 0.069314
v -0.069314 -0.499728 0.069314
v 0.069314 -0.499728 -0.069314
v -0.069314 -0.499728 -0.069314
v 0.287509 -0.499728 0.287509
v 0.148880 -0.499728 0.287509
v 0.287509 -0.499728 0.148880
v 0.148880 -0.499728 0.148880
v -0.148880 -0.499728 -0.148880
v -0.287509 -0.499728 -0.148880
v -0.148880 -0.499728 -0.287509
v -0.287509 -0.499728 -0.287509
v 0.499728 0.287509 0.287509
v 0.499728 0.148880 0.287509
v 0.499728 0.287509 0.148880
v 0.499728 0.148880 0.148880
v 0.499728 -0.148880 -0.148881
v 0.499728 -0.287509 -0.148880
v 0.499728 -0.148880 -0.287509
v 0.499728 -0.287509 -0.287509
v 0.499728 -0.287509 0.287509
v 0.499728 -0.287509 0.148880
v 0.499728 -0.148880 0.287509
v 0.499728 -0.148880 0.148880
v 0.499728 0.148880 -0.148880
v 0.499728 0.148880 -0.287509
v 0.499728 0.287509 -0.148880
v 0.499728 0.287509 -0.287509
v -0.287509 0.499728 0.287509
v -0.148880 0.499728 0.287509
v -0.287509 0.499728 0.148880
v -0.148880 0.499728 0.148880
v 0.148880 0.499728 -0.148880
v 0.287509 0.499728 -0.148880
v 0.148880 0.499728 -0.287509
v 0.287509 0.499728 -0.287509
v 0.287508 0.499728 0.287509
v 0.287509 0.499728 0.148880
v 0.148880 0.499728 0.287509
v 0.148880 0.499728 0.148880
v -0.148880 0.499728 -0.148880
v -0.148880 0.499728 -0.287509
v -0.287509 0.499728 -0.148880
v -0.287509 0.499728 -0.287509
v -0.499728 -0.287509 0.287509
v -0.499728 -0.148880 0.287509
v -0.499728 -0.287509 0.148880
v -0.499728 -0.148880 0.148880
v -0.499728 0.148880 -0.148880
v -0.499728 0.287509 -0.148880
v -0.499728 0.148880 -0.287509
v -0.499728 0.287509 -0.287509
v -0.287509 0.287508 -0.499728
v -0.148880 0.287509 -0.499728
v -0.287509 0.148880 -0.499728
v -0.148880 0.148880 -0.499728
v 0.148880 -0.148880 -0.499728
v 0.287509 -0.148880 -0.499728
v 0.148880 -0.287509 -0.499728
v 0.287509 -0.287509 -0.499728
v 0.287509 0.287509 -0.499728
v 0.287509 0.148880 -0.499728
v 0.148880 0.287509 -0.499728
v 0.148880 0.148880 -0.499728
v -0.148880 -0.148880 -0.499728
v -0.148880 -0.287509 -0.499728
v -0.287509 -0.148880 -0.499728
v -0.287509 -0.287509 -0.499728
v -0.287509 0.069314 -0.499728
v -0.148880 0.069314 -0.499728
v -0.287509 -0.069314 -0.499728
v -0.148880 -0.069314 -0.499728
v 0.287509 0.069314 -0.499728
v 0.287509 -0.069314 -0.499728
v 0.148880 0.069314 -0.499728
v 0.148880 -0.069314 -0.499728
v 0.499728 0.069314 0.069314
v 0.499728 0.098025 -0.000000
v 0.499728 -0.069314 0.069314
v 0.499728 0.000000 0.098025
v 0.499728 0.069314 -0.069314
v 0.499728 -0.000000 -0.098025
v 0.499728 -0.069314 -0.069314
v 0.499728 -0.098025 -0.000000
v -0.000000 0.098025 0.499728
v 0.098025 -0.000000 0.499728
v -0.000000 -0.098025 0.499728
v -0.098025 -0.000000 0.499728
v -0.000000 -0.499728 0.098025
v 0.098025 -0.499728 -0.000000
v -0.000000 -0.499728 -0.098025
v -0.098025 -0.499728 -0.000000
v 0.218194 -0.499728 0.316220
v 0.316220 -0.499728 0.218194
v 0.218194 -0.499728 0.120169
v 0.120169 -0.499728 0.218194
v -0.218195 -0.499728 -0.120170
v -0.120170 -0.499728 -0.218195
v -0.218195 -0.499728 -0.316220
v -0.316220 -0.499728 -0.218195
v 0.499728 0.218195 0.316220
v 0.499728 0.316220 0.218194
v 0.499728 0.218194 0.120169
v 0.499728 0.120169 0.218194
v 0.499728 -0.218194 -0.120170
v 0.499728 -0.120169 -0.218195
v 0.499728 -0.218195 -0.316220
v 0.499728 -0.316220 -0.218195
v 0.499728 -0.316220 0.218195
v 0.499728 -0.218194 0.316220
v 0.499728 -0.120169 0.218194
v 0.499728 -0.218194 0.120169
v 0.499728 0.120170 -0.218195
v 0.499728 0.218195 -0.120170
v 0.499728 0.316220 -0.218195
v 0.499728 0.218195 -0.316220
v -0.218195 0.499728 0.316220
v -0.316220 0.499728 0.218194
v -0.218194 0.499728 0.120169
v -0.120169 0.499728 0.218194
v 0.218194 0.499728 -0.120170
v 0.120169 0.499728 -0.218195
v 0.218195 0.499728 -0.316220
v 0.316220 0.499728 -0.218195
v 0.316219 0.499728 0.218195
v 0.218194 0.499728 0.316220
v 0.120169 0.499728 0.218194
v 0.218194 0.499728 0.120169
v -0.120170 0.499728 -0.218195
v -0.218195 0.499728 -0.120170
v -0.316220 0.499728 -0.218195
v -0.218195 0.499728 -0.316220
v -0.499728 -0.218195 0.316220
v -0.499728 -0.316220 0.218194
v -0.499728 -0.218194 0.120169
v -0.499728 -0.120169 0.218194
v -0.499728 0.218195 -0.120170
v -0.499728 0.120169 -0.218195
v -0.499728 0.218195 -0.316220
v -0.499728 0.316220 -0.218195
v -0.218195 0.316219 -0.499728
v -0.316220 0.218194 -0.499728
v -0.218194 0.120169 -0.499728
v -0.120169 0.218194 -0.499728
v 0.218195 -0.120170 -0.499728
v 0.120169 -0.218195 -0.499728
v 0.218195 -0.316220 -0.499728
v 0.316220 -0.218195 -0.499728
v 0.316219 0.218194 -0.499728
v 0.218194 0.316220 -0.499728
v 0.120169 0.218194 -0.499728
v 0.218194 0.120169 -0.499728
v -0.120170 -0.218194 -0.499728
v -0.218195 -0.120169 -0.499728
v -0.316220 -0.218195 -0.499728
v -0.218195 -0.316220 -0.499728
v -0.218195 0.098025 -0.499728
v -0.316220 -0.000000 -0.499728
v -0.218194 -0.098025 -0.499728
v -0.120169 -0.000000 -0.499728
v 0.316219 -0.000000 -0.499728
v 0.218194 0.098025 -0.499728
v 0.120169 -0.000000 -0.499728
v 0.218194 -0.098025 -0.499728
v 0.069314 0.069314 0.499728
v -0.069314 0.069314 0.499728
v 0.069314 -0.069314 0.499728
v -0.069314 -0.069314 0.499728
v 0.069314 -0.499728 0.069314
v -0.069314 -0.499728 0.069314
v 0.069314 -0.499728 -0.069314
v -0.069314 -0.499728 -0.069314
v 0.287509 -0.499728 0.287509
v 0.148880 -0.499728 0.287509
v 0.287509 -0.499728 0.148880
v 0.148880 -0.499728 0.148880
v -0.148880 -0.499728 -0.148880
v -0.287509 -0.499728 -0.148880
v -0.148880 -0.499728 -0.287509
v -0.287509 -0.499728 -0.287509
v 0.499728 0.287509 0.287509
v 0.499728 0.148880 0.287509
v 0.499728 0.287509 0.148880
v 0.499728 0.148880 0.148880
v 0.499728 -0.148880 -0.148881
v 0.499728 -0.287509 -0.148880
v 0.499728 -0.148880 -0.287509
v 0.499728 -0.287509 -0.287509
v 0.499728 -0.287509 0.287509
v 0.499728 -0.287509 0.148880
v 0.499728 -0.148880 0.287509
v 0.499728 -0.148880 0.148880
v 0.499728 0.148880 -0.148880
v 0.499728 0.148880 -0.287509
v 0.499728 0.287509 -0.148880
v 0.499728 0.287509 -0.287509
v -0.287509 0.499728 0.287509
v -0.148880 0.499728 0.287509
v -0.287509 0.499728 0.148880
v -0.148880 0.499728 0.148880
v 0.148880 0.499728 -0.148880
v 0.287509 0.499728 -0.148880
v 0.148880 0.499728 -0.287509
v 0.287509 0.499728 -0.287509
v 0.287508 0.499728 0.287509
v 0.287509 0.499728 0.148880
v 0.148880 0.499728 0.287509
v 0.148880 0.499728 0.148880
v -0.148880 0.499728 -0.148880
v -0.148880 0.499728 -0.287509
v -0.287509 0.499728 -0.148880
v -0.287509 0.499728 -0.287509
v -0.499728 -0.287509 0.287509
v -0.499728 -0.148880 0.287509
v -0.499728 -0.287509 0.148880
v -0.499728 -0.148880 0.148880
v -0.499728 0.148880 -0.148880
v -0.499728 0.287509 -0.148880
v -0.499728 0.148880 -0.287509
v -0.499728 0.287509 -0.287509
v -0.287509 0.287508 -0.499728
v -0.148880 0.287509 -0.499728
v -0.287509 0.148880 -0.499728
v -0.148880 0.148880 -0.499728
v 0.148880 -0.148880 -0.499728
v 0.287509 -0.148880 -0.499728
v 0.148880 -0.287509 -0.499728
v 0.287509 -0.287509 -0.499728
v 0.287509 0.287509 -0.499728
v 0.287509 0.148880 -0.499728
v 0.148880 0.287509 -0.499728
v 0.148880 0.148880 -0.499728
v -0.148880 -0.148880 -0.499728
v -0.148880 -0.287509 -0.499728
v -0.287509 -0.148880 -0.499728
v -0.287509 -0.287509 -0.499728
v -0.287509 0.069314 -0.499728
v -0.148880 0.069314 -0.499728
v -0.287509 -0.069314 -0.499728
v -0.148880 -0.069314 -0.499728
v 0.287509 0.069314 -0.499728
v 0.287509 -0.069314 -0.499728
v 0.148880 0.069314 -0.499728
v 0.148880 -0.069314 -0.499728
v 0.218194 -0.000000 -0.459554
v -0.218195 -0.000000 -0.459554
v -0.218195 -0.218195 -0.459554
v 0.218194 0.218194 -0.459554
v 0.218194 -0.218195 -0.459554
v -0.218195 0.218194 -0.459554
v -0.459554 0.218195 -0.218195
v -0.459554 -0.218194 0.218194
v -0.218195 0.459554 -0.218195
v 0.218194 0.459554 0.218195
v 0.218195 0.459554 -0.218195
v -0.218194 0.459554 0.218194
v 0.459554 0.218195 -0.218195
v 0.459554 -0.218194 0.218195
v 0.459554 -0.218195 -0.218195
v 0.459554 0.218194 0.218194
v -0.218195 -0.459554 -0.218195
v 0.218194 -0.459554 0.218194
v 0.459554 -0.000000 -0.000000
v -0.000000 -0.459554 -0.000000
v -0.000000 -0.000000 0.459554
v 0.177841 0.040353 -0.472140
v 0.218194 0.058057 -0.470742
v 0.258547 0.040353 -0.472140
v 0.276252 -0.000000 -0.470742
v 0.258547 -0.040353 -0.472140
v 0.218194 -0.058058 -0.470742
v 0.177841 -0.040353 -0.472140
v 0.160137 -0.000000 -0.470742
v -0.258548 -0.040353 -0.472140
v -0.276252 -0.000000 -0.470742
v -0.258548 0.040353 -0.472140
v -0.218195 0.058057 -0.470742
v -0.177841 0.040353 -0.472140
v -0.160137 -0.000000 -0.470742
v -0.177841 -0.040353 -0.472140
v -0.218194 -0.058058 -0.470742
v -0.258548 -0.177841 -0.472140
v -0.218195 -0.160137 -0.470742
v -0.177842 -0.177841 -0.472140
v -0.160137 -0.218195 -0.470742
v -0.177842 -0.258548 -0.472140
v -0.218195 -0.276252 -0.470742
v -0.258548 -0.258548 -0.472140
v -0.276252 -0.218195 -0.470742
v 0.177841 0.258548 -0.472140
v 0.218194 0.276252 -0.470742
v 0.258547 0.258548 -0.472140
v 0.276252 0.218194 -0.470742
v 0.258547 0.177841 -0.472140
v 0.218194 0.160137 -0.470742
v 0.177841 0.177841 -0.472140
v 0.160137 0.218194 -0.470742
v 0.177841 -0.258548 -0.472140
v 0.160137 -0.218195 -0.470742
v 0.177841 -0.177842 -0.472140
v 0.218195 -0.160137 -0.470742
v 0.258548 -0.177842 -0.472140
v 0.276252 -0.218195 -0.470742
v 0.258548 -0.258548 -0.472140
v 0.218195 -0.276252 -0.470742
v -0.258548 0.177841 -0.472140
v -0.276252 0.218194 -0.470742
v -0.258548 0.258547 -0.472140
v -0.218195 0.276252 -0.470742
v -0.177841 0.258547 -0.472140
v -0.160137 0.218194 -0.470742
v -0.177841 0.177841 -0.472140
v -0.218194 0.160137 -0.470742
v -0.472140 0.177842 -0.258548
v -0.470742 0.160137 -0.218195
v -0.472140 0.177842 -0.177842
v -0.470742 0.218195 -0.160137
v -0.472140 0.258548 -0.177842
v -0.470742 0.276252 -0.218195
v -0.472140 0.258548 -0.258548
v -0.470742 0.218195 -0.276252
v -0.472140 -0.258548 0.177841
v -0.470742 -0.276252 0.218194
v -0.472140 -0.258548 0.258547
v -0.470742 -0.218195 0.276252
v -0.472140 -0.177841 0.258547
v -0.470742 -0.160137 0.218194
v -0.472140 -0.177841 0.177841
v -0.470742 -0.218194 0.160137
v -0.258548 0.472140 -0.177842
v -0.218195 0.470742 -0.160137
v -0.177842 0.472140 -0.177842
v -0.160137 0.470742 -0.218195
v -0.177842 0.472140 -0.258548
v -0.218195 0.470742 -0.276252
v -0.258548 0.472140 -0.258548
v -0.276252 0.470742 -0.218195
v 0.177841 0.472140 0.258548
v 0.218194 0.470742 0.276252
v 0.258547 0.472140 0.258548
v 0.276252 0.470742 0.218195
v 0.258547 0.472140 0.177841
v 0.218194 0.470742 0.160137
v 0.177841 0.472140 0.177841
v 0.160137 0.470742 0.218194
v 0.177842 0.472140 -0.258548
v 0.160137 0.470742 -0.218195
v 0.177842 0.472140 -0.177842
v 0.218195 0.470742 -0.160137
v 0.258548 0.472140 -0.177842
v 0.276252 0.470742 -0.218195
v 0.258548 0.472140 -0.258548
v 0.218195 0.470742 -0.276252
v -0.258548 0.472140 0.177841
v -0.276252 0.470742 0.218194
v -0.258548 0.472140 0.258547
v -0.218195 0.470742 0.276252
v -0.177841 0.472140 0.258548
v -0.160137 0.470742 0.218194
v -0.177841 0.472140 0.177841
v -0.218194 0.470742 0.160137
v 0.472140 0.258548 -0.177842
v 0.470742 0.218195 -0.160137
v 0.472140 0.177842 -0.177842
v 0.470742 0.160137 -0.218195
v 0.472140 0.177842 -0.258548
v 0.470742 0.218195 -0.276252
v 0.472140 0.258548 -0.258548
v 0.470742 0.276252 -0.218195
v 0.472140 -0.177841 0.258548
v 0.470742 -0.218194 0.276252
v 0.472140 -0.258547 0.258548
v 0.470742 -0.276252 0.218195
v 0.472140 -0.258548 0.177841
v 0.470742 -0.218194 0.160137
v 0.472140 -0.177841 0.177841
v 0.470742 -0.160137 0.218195
v 0.472140 -0.177842 -0.258548
v 0.470742 -0.160137 -0.218195
v 0.472140 -0.177841 -0.177842
v 0.470742 -0.218195 -0.160137
v 0.472140 -0.258548 -0.177842
v 0.470742 -0.276252 -0.218195
v 0.472140 -0.258548 -0.258548
v 0.470742 -0.218195 -0.276252
v 0.472140 0.258548 0.177841
v 0.470742 0.276252 0.218194
v 0.472140 0.258548 0.258547
v 0.470742 0.218194 0.276252
v 0.472140 0.177841 0.258548
v 0.470742 0.160137 0.218194
v 0.472140 0.177841 0.177841
v 0.470742 0.218194 0.160137
v -0.177842 -0.472140 -0.258548
v -0.160137 -0.470742 -0.218195
v -0.177842 -0.472140 -0.177842
v -0.218195 -0.470742 -0.160137
v -0.258548 -0.472140 -0.177842
v -0.276252 -0.470742 -0.218195
v -0.258548 -0.472140 -0.258548
v -0.218195 -0.470742 -0.276252
v 0.258547 -0.472140 0.177841
v 0.276252 -0.470742 0.218194
v 0.258548 -0.472140 0.258548
v 0.218194 -0.470742 0.276252
v 0.177841 -0.472140 0.258548
v 0.160137 -0.470742 0.218194
v 0.177841 -0.472140 0.177841
v 0.218194 -0.470742 0.160137
v 0.472140 0.040353 -0.040353
v 0.470742 0.058057 -0.000000
v 0.472140 0.040353 0.040353
v 0.470742 -0.000000 0.058057
v 0.472140 -0.040353 0.040353
v 0.470742 -0.058058 -0.000000
v 0.472140 -0.040353 -0.040353
v 0.470742 -0.000000 -0.058058
v 0.040353 -0.472140 -0.040353
v 0.058057 -0.470742 -0.000000
v 0.040353 -0.472140 0.040353
v -0.000000 -0.470742 0.058057
v -0.040353 -0.472140 0.040353
v -0.058058 -0.470742 -0.000000
v -0.040353 -0.472140 -0.040353
v -0.000000 -0.470742 -0.058058
v 0.040353 -0.040353 0.472140
v 0.058057 -0.000000 0.470742
v 0.040353 0.040353 0.472140
v -0.000000 0.058057 0.470742
v -0.040353 0.040353 0.472140
v -0.058058 -0.000000 0.470742
v -0.040353 -0.040353 0.472140
v -0.000000 -0.058058 0.470742
v 0.499728 0.069314 0.069314
v 0.499728 0.098025 -0.000000
v 0.499728 -0.069314 0.069314
v 0.499728 0.000000 0.098025
v 0.499728 0.069314 -0.069314
v 0.499728 -0.000000 -0.098025
v 0.499728 -0.069314 -0.069314
v 0.499728 -0.098025 -0.000000
vn 0.7042 -0.0000 0.7100
vn 0.6958 0.2587 0.6700
vn 0.6677 0.2610 0.6972
vn 0.6269 0.4555 0.6321
vn 0.7046 0.2903 0.6475
vn 0.7127 0.4937 0.4983
vn -0.0142 0.6955 0.7184
vn 0.2777 0.6526 0.7049
vn 0.2850 0.6773 0.6783
vn 0.4716 0.6324 0.6145
vn 0.2656 0.7198 0.6413
vn 0.7044 0.7098 0.0001
vn 0.6709 0.6881 0.2763
vn 0.6988 0.6591 0.2779
vn 0.6136 0.6386 0.4644
vn 0.5077 0.4948 0.7053
vn 0.4839 0.7166 0.5023
vn 0.6423 0.7157 0.2743
vn 1.0000 0.0000 0.0000
vn 0.0000 1.0000 0.0000
vn 0.0000 0.0000 1.0000
vn -0.7051 -0.0204 0.7088
vn -0.6533 0.2767 0.7048
vn -0.6815 0.2573 0.6851
vn -0.6204 0.4876 0.6143
vn -0.7015 0.5096 0.4982
vn -0.7016 0.2743 0.6576
vn -0.2640 0.6808 0.6833
vn -0.2758 0.6505 0.7076
vn -0.4671 0.6138 0.6365
vn -0.2519 0.7096 0.6581
vn -0.7044 0.7098 -0.0001
vn -0.6949 0.6627 0.2794
vn -0.6708 0.6852 0.2839
vn -0.6139 0.6237 0.4839
vn -0.5051 0.4841 0.7145
vn -0.5020 0.7003 0.5075
vn -0.6623 0.7044 0.2552
vn -1.0000 0.0000 0.0000
vn 0.6677 -0.2610 0.6972
vn 0.6958 -0.2587 0.6700
vn 0.6269 -0.4554 0.6321
vn 0.7127 -0.4937 0.4983
vn 0.7046 -0.2903 0.6475
vn -0.0142 -0.6955 0.7184
vn 0.2850 -0.6773 0.6783
vn 0.2777 -0.6527 0.7049
vn 0.4716 -0.6324 0.6145
vn 0.2656 -0.7198 0.6413
vn 0.7044 -0.7098 0.0001
vn 0.6988 -0.6591 0.2779
vn 0.6709 -0.6881 0.2763
vn 0.6136 -0.6386 0.4644
vn 0.5077 -0.4948 0.7053
vn 0.4840 -0.7166 0.5023
vn 0.6423 -0.7157 0.2743
vn -0.0000 -1.0000 0.0000
vn -0.6815 -0.2573 0.6851
vn -0.6533 -0.2767 0.7048
vn -0.6204 -0.4876 0.6143
vn -0.7016 -0.2743 0.6576
vn -0.7015 -0.5096 0.4982
vn -0.2758 -0.6505 0.7076
vn -0.2640 -0.6808 0.6833
vn -0.4671 -0.6138 0.6365
vn -0.2518 -0.7096 0.6581
vn -0.7044 -0.7098 -0.0001
vn -0.6708 -0.6852 0.2839
vn -0.6949 -0.6627 0.2793
vn -0.6139 -0.6237 0.4839
vn -0.5052 -0.4841 0.7145
vn -0.5020 -0.7003 0.5075
vn -0.6623 -0.7044 0.2552
vn 0.7049 0.0204 -0.7090
vn 0.6533 0.2767 -0.7048
vn 0.6815 0.2573 -0.6851
vn 0.6204 0.4876 -0.6143
vn 0.7015 0.5096 -0.4982
vn 0.7016 0.2743 -0.6576
vn 0.0142 0.6955 -0.7184
vn 0.2640 0.6808 -0.6833
vn 0.2758 0.6505 -0.7076
vn 0.4671 0.6138 -0.6365
vn 0.2519 0.7096 -0.6581
vn 0.6949 0.6627 -0.2794
vn 0.6708 0.6852 -0.2839
vn 0.6139 0.6237 -0.4839
vn 0.5051 0.4841 -0.7145
vn 0.5020 0.7003 -0.5075
vn 0.6623 0.7044 -0.2552
vn -0.0000 -0.0000 -1.0000
vn -0.7042 -0.0000 -0.7100
vn -0.6958 0.2587 -0.6700
vn -0.6677 0.2610 -0.6972
vn -0.6269 0.4554 -0.6321
vn -0.7046 0.2903 -0.6475
vn -0.7127 0.4937 -0.4983
vn -0.2777 0.6526 -0.7049
vn -0.2850 0.6773 -0.6783
vn -0.4716 0.6324 -0.6145
vn -0.2656 0.7198 -0.6413
vn -0.6709 0.6881 -0.2763
vn -0.6988 0.6591 -0.2779
vn -0.6136 0.6386 -0.4644
vn -0.5077 0.4948 -0.7053
vn -0.4839 0.7166 -0.5023
vn -0.6423 0.7157 -0.2743
vn 0.6815 -0.2573 -0.6851
vn 0.6533 -0.2767 -0.7048
vn 0.6204 -0.4876 -0.6143
vn 0.7016 -0.2743 -0.6576
vn 0.7015 -0.5096 -0.4982
vn 0.0142 -0.6955 -0.7184
vn 0.2758 -0.6505 -0.7076
vn 0.2640 -0.6808 -0.6833
vn 0.4671 -0.6138 -0.6365
vn 0.2518 -0.7096 -0.6581
vn 0.6708 -0.6852 -0.2839
vn 0.6949 -0.6627 -0.2793
vn 0.6139 -0.6237 -0.4839
vn 0.5052 -0.4841 -0.7145
vn 0.5020 -0.7003 -0.5075
vn 0.6623 -0.7044 -0.2552
vn -0.6677 -0.2610 -0.6972
vn -0.6958 -0.2587 -0.6700
vn -0.6269 -0.4554 -0.6321
vn -0.7127 -0.4937 -0.4983
vn -0.7046 -0.2903 -0.6475
vn -0.2850 -0.6773 -0.6783
vn -0.2777 -0.6527 -0.7049
vn -0.4716 -0.6324 -0.6145
vn -0.2656 -0.7198 -0.6413
vn -0.6988 -0.6591 -0.2779
vn -0.6709 -0.6881 -0.2763
vn -0.6136 -0.6386 -0.4644
vn -0.5077 -0.4948 -0.7053
vn -0.4839 -0.7166 -0.5023
vn -0.6423 -0.7157 -0.2743
vn 1.0000 0.0001 0.0000
vn 1.0000 0.0000 0.0001
vn -1.0000 -0.0001 -0.0001
vn -0.0001 -0.0000 1.0000
vn -0.0000 0.0001 -1.0000
vn 0.0001 -0.0000 -1.0000
vn -0.0001 -0.0000 -1.0000
vn -0.0000 -0.0001 -1.0000
vn 0.0001 -0.0001 1.0000
vn -0.0000 -0.0001 1.0000
vn 0.0001 0.0001 1.0000
vn -1.0000 0.0001 0.0001
vn -0.0001 -1.0000 0.0001
vn -0.3131 -0.3131 0.8966
vn -0.4300 0.0000 0.9028
vn -0.5692 0.0000 0.8222
vn -0.4077 -0.4077 0.8170
vn -0.3131 -0.8966 -0.3131
vn -0.4300 -0.9028 -0.0000
vn -0.5692 -0.8222 0.0000
vn -0.4077 -0.8170 -0.4077
vn 0.8966 -0.3131 -0.3131
vn 0.9028 -0.4300 0.0000
vn 0.8222 -0.5692 0.0000
vn 0.8170 -0.4077 -0.4077
vn 0.8966 0.3131 -0.3131
vn 0.9028 -0.0000 -0.4300
vn 0.8222 -0.0000 -0.5692
vn 0.8170 0.4077 -0.4077
vn 0.3131 0.8966 -0.3131
vn 0.4300 0.9028 0.0000
vn 0.5692 0.8222 0.0000
vn 0.4077 0.8170 -0.4077
vn -0.3131 0.8966 -0.3131
vn 0.0000 0.9028 -0.4300
vn 0.0000 0.8222 -0.5692
vn -0.4077 0.8170 -0.4077
vn -0.8966 0.3131 -0.3131
vn -0.9028 0.4300 0.0000
vn -0.8222 0.5692 0.0000
vn -0.8170 0.4077 -0.4077
vn 0.3131 -0.3131 -0.8966
vn 0.4300 0.0000 -0.9028
vn 0.5692 0.0000 -0.8222
vn 0.4077 -0.4077 -0.8170
vn -0.3131 -0.3131 -0.8966
vn 0.0000 -0.4300 -0.9028
vn 0.0000 -0.5692 -0.8222
vn -0.4077 -0.4077 -0.8170
vn -0.5692 -0.0000 -0.8222
vn -0.4077 0.4077 -0.8170
vn -0.3131 0.3131 -0.8966
vn -0.4300 -0.0000 -0.9028
vn 0.3131 0.3131 -0.8966
vn 0.4077 0.4077 -0.8170
vn 0.0000 0.4300 -0.9028
vn 0.0000 0.5692 -0.8222
vn -0.8222 0.0000 -0.5692
vn -0.8170 -0.4077 -0.4077
vn -0.8966 -0.3131 -0.3131
vn -0.9028 -0.0000 -0.4300
vn -0.9028 -0.0000 0.4300
vn -0.8966 -0.3131 0.3131
vn -0.8170 -0.4077 0.4077
vn -0.8222 -0.0000 0.5692
vn -0.5692 0.8222 -0.0000
vn -0.4077 0.8170 0.4077
vn -0.3131 0.8966 0.3131
vn -0.4300 0.9028 -0.0000
vn 0.3131 0.8966 0.3131
vn 0.4077 0.8170 0.4077
vn -0.0000 0.9028 0.4300
vn -0.0000 0.8222 0.5692
vn 0.8222 0.5692 -0.0000
vn 0.8170 0.4077 0.4077
vn 0.8966 0.3131 0.3131
vn 0.9028 0.4300 -0.0000
vn 0.8966 -0.3131 0.3131
vn 0.8170 -0.4077 0.4077
vn 0.9028 -0.0000 0.4300
vn 0.8222 -0.0000 0.5692
vn -0.0000 -0.8222 -0.5692
vn 0.4077 -0.8170 -0.4077
vn 0.3131 -0.8966 -0.3131
vn -0.0000 -0.9028 -0.4300
vn -0.0000 -0.9028 0.4300
vn 0.3131 -0.8966 0.3131
vn 0.4077 -0.8170 0.4077
vn 0.0000 -0.8222 0.5692
vn -0.0000 -0.5692 0.8222
vn 0.4077 -0.4077 0.8170
vn 0.3131 -0.3131 0.8966
vn 0.0000 -0.4300 0.9028
vn -0.0000 0.4300 0.9028
vn 0.3131 0.3131 0.8966
vn 0.4077 0.4077 0.8170
vn 0.0000 0.5692 0.8222
vn -0.3131 0.3131 0.8966
vn -0.4077 0.4077 0.8170
vn -0.3131 -0.8966 0.3131
vn -0.4077 -0.8170 0.4077
vn -0.8966 0.3131 0.3131
vn -0.8170 0.4077 0.4077
vn -0.8222 -0.5692 -0.0000
vn -0.9028 -0.4300 -0.0000
vn 0.5692 -0.8222 -0.0000
vn 0.4300 -0.9028 -0.0000
vn 0.5692 -0.0000 0.8222
vn 0.4300 -0.0000 0.9028
usemtl Ivory.001
s 1
f 58//1 10//2 2//3
f 11//4 9//5 8//6
f 30//7 3//8 12//9
f 13//10 4//11 12//9
f 116//12 14//13 7//14
f 7//14 14//13 15//15
f 8//6 15//15 11//4
f 11//4 13//10 1//16
f 11//4 15//15 13//10
f 15//15 5//17 13//10
f 6//18 5//17 15//15
f 3//8 13//10 12//9
f 2//3 11//4 1//16
f 58//1 9//5 10//2
f 30//7 12//9 4//11
f 116//12 6//18 14//13
f 11//4 10//2 9//5
f 13//10 5//17 4//11
f 7//14 15//15 8//6
f 6//18 15//15 14//13
f 3//8 1//16 13//10
f 2//3 10//2 11//4
f 125//19 116//12 7//14 17//19
f 8//6 18//19 17//19 7//14
f 58//1 68//19 16//19 9//5
f 8//6 9//5 16//19 18//19
f 30//7 4//11 19//20 25//20
f 4//11 5//17 21//20 19//20
f 5//17 6//18 20//20 21//20
f 6//18 116//12 129//20 20//20
f 58//1 2//3 22//21 75//21
f 2//3 1//16 24//21 22//21
f 1//16 3//8 23//21 24//21
f 3//8 30//7 48//21 23//21
f 87//22 27//23 36//24
f 37//25 34//26 35//27
f 30//7 38//28 28//29
f 39//30 38//28 29//31
f 145//32 33//33 40//34
f 33//33 41//35 40//34
f 34//26 37//25 41//35
f 37//25 26//36 39//30
f 37//25 39//30 41//35
f 41//35 39//30 31//37
f 32//38 41//35 31//37
f 28//29 38//28 39//30
f 27//23 26//36 37//25
f 87//22 36//24 35//27
f 30//7 29//31 38//28
f 145//32 40//34 32//38
f 37//25 35//27 36//24
f 39//30 29//31 31//37
f 33//33 34//26 41//35
f 32//38 40//34 41//35
f 28//29 39//30 26//36
f 27//23 37//25 36//24
f 154//39 43//39 33//33 145//32
f 34//26 33//33 43//39 44//39
f 87//22 35//27 42//39 97//39
f 34//26 44//39 42//39 35//27
f 30//7 25//20 45//20 29//31
f 29//31 45//20 47//20 31//37
f 31//37 47//20 46//20 32//38
f 32//38 46//20 158//20 145//32
f 87//22 104//21 49//21 27//23
f 27//23 49//21 51//21 26//36
f 26//36 51//21 50//21 28//29
f 28//29 50//21 48//21 30//7
f 58//1 53//40 62//41
f 63//42 60//43 61//44
f 84//45 64//46 54//47
f 65//48 64//46 55//49
f 174//50 59//51 66//52
f 59//51 67//53 66//52
f 60//43 63//42 67//53
f 63//42 52//54 65//48
f 63//42 65//48 67//53
f 67//53 65//48 56//55
f 57//56 67//53 56//55
f 54//47 64//46 65//48
f 53//40 52//54 63//42
f 58//1 62//41 61//44
f 84//45 55//49 64//46
f 174//50 66//52 57//56
f 63//42 61//44 62//41
f 65//48 55//49 56//55
f 59//51 60//43 67//53
f 57//56 66//52 67//53
f 54//47 65//48 52//54
f 53//40 63//42 62//41
f 184//19 70//19 59//51 174//50
f 60//43 59//51 70//19 71//19
f 58//1 61//44 69//19 68//19
f 60//43 71//19 69//19 61//44
f 84//45 79//57 72//57 55//49
f 55//49 72//57 74//57 56//55
f 56//55 74//57 73//57 57//56
f 57//56 73//57 188//57 174//50
f 58//1 75//21 76//21 53//40
f 53//40 76//21 78//21 52//54
f 52//54 78//21 77//21 54//47
f 54//47 77//21 105//21 84//45
f 87//22 91//58 81//59
f 92//60 90//61 89//62
f 84//45 82//63 93//64
f 94//65 83//66 93//64
f 206//67 95//68 88//69
f 88//69 95//68 96//70
f 89//62 96//70 92//60
f 92//60 94//65 80//71
f 92//60 96//70 94//65
f 96//70 85//72 94//65
f 86//73 85//72 96//70
f 82//63 94//65 93//64
f 81//59 92//60 80//71
f 87//22 90//61 91//58
f 84//45 93//64 83//66
f 206//67 86//73 95//68
f 92//60 91//58 90//61
f 94//65 85//72 83//66
f 88//69 96//70 89//62
f 86//73 96//70 95//68
f 82//63 80//71 94//65
f 81//59 91//58 92//60
f 216//39 206//67 88//69 99//39
f 89//62 100//39 99//39 88//69
f 87//22 97//39 98//39 90//61
f 89//62 90//61 98//39 100//39
f 84//45 83//66 101//57 79//57
f 83//66 85//72 103//57 101//57
f 85//72 86//73 102//57 103//57
f 86//73 206//67 220//57 102//57
f 87//22 81//59 106//21 104//21
f 81//59 80//71 108//21 106//21
f 80//71 82//63 107//21 108//21
f 82//63 84//45 105//21 107//21
f 172//74 110//75 119//76
f 120//77 117//78 118//79
f 141//80 121//81 111//82
f 122//83 121//81 112//84
f 116//12 115//85 123//86
f 115//85 124//87 123//86
f 117//78 120//77 124//87
f 120//77 109//88 122//83
f 120//77 122//83 124//87
f 124//87 122//83 113//89
f 114//90 124//87 113//89
f 111//82 121//81 122//83
f 110//75 109//88 120//77
f 172//74 119//76 118//79
f 141//80 112//84 121//81
f 116//12 123//86 114//90
f 120//77 118//79 119//76
f 122//83 112//84 113//89
f 115//85 117//78 124//87
f 114//90 123//86 124//87
f 111//82 122//83 109//88
f 110//75 120//77 119//76
f 125//19 127//19 115//85 116//12
f 117//78 115//85 127//19 128//19
f 172//74 118//79 126//19 183//19
f 117//78 128//19 126//19 118//79
f 141//80 136//20 130//20 112//84
f 112//84 130//20 132//20 113//89
f 113//89 132//20 131//20 114//90
f 114//90 131//20 129//20 116//12
f 172//74 192//91 133//91 110//75
f 110//75 133//91 135//91 109//88
f 109//88 135//91 134//91 111//82
f 111//82 134//91 162//91 141//80
f 204//92 148//93 138//94
f 149//95 147//96 146//97
f 141//80 139//98 150//99
f 151//100 140//101 150//99
f 145//32 152//102 144//103
f 144//103 152//102 153//104
f 146//97 153//104 149//95
f 149//95 151//100 137//105
f 149//95 153//104 151//100
f 153//104 142//106 151//100
f 143//107 142//106 153//104
f 139//98 151//100 150//99
f 138//94 149//95 137//105
f 204//92 147//96 148//93
f 141//80 150//99 140//101
f 145//32 143//107 152//102
f 149//95 148//93 147//96
f 151//100 142//106 140//101
f 144//103 153//104 146//97
f 143//107 153//104 152//102
f 139//98 137//105 151//100
f 138//94 148//93 149//95
f 154//39 145//32 144//103 156//39
f 146//97 157//39 156//39 144//103
f 204//92 215//39 155//39 147//96
f 146//97 147//96 155//39 157//39
f 141//80 140//101 159//20 136//20
f 140//101 142//106 161//20 159//20
f 142//106 143//107 160//20 161//20
f 143//107 145//32 158//20 160//20
f 204//92 138//94 163//91 224//91
f 138//94 137//105 165//91 163//91
f 137//105 139//98 164//91 165//91
f 139//98 141//80 162//91 164//91
f 172//74 177//108 167//109
f 178//110 176//111 175//112
f 201//113 168//114 179//115
f 180//116 169//117 179//115
f 174//50 181//118 173//119
f 173//119 181//118 182//120
f 175//112 182//120 178//110
f 178//110 180//116 166//121
f 178//110 182//120 180//116
f 182//120 170//122 180//116
f 171//123 170//122 182//120
f 168//114 180//116 179//115
f 167//109 178//110 166//121
f 172//74 176//111 177//108
f 201//113 179//115 169//117
f 174//50 171//123 181//118
f 178//110 177//108 176//111
f 180//116 170//122 169//117
f 173//119 182//120 175//112
f 171//123 182//120 181//118
f 168//114 166//121 180//116
f 167//109 177//108 178//110
f 184//19 174//50 173//119 186//19
f 175//112 187//19 186//19 173//119
f 172//74 183//19 185//19 176//111
f 175//112 176//111 185//19 187//19
f 201//113 169//117 189//57 196//57
f 169//117 170//122 191//57 189//57
f 170//122 171//123 190//57 191//57
f 171//123 174//50 188//57 190//57
f 172//74 167//109 193//91 192//91
f 167//109 166//121 195//91 193//91
f 166//121 168//114 194//91 195//91
f 168//114 201//113 225//91 194//91
f 204//92 198//124 209//125
f 210//126 207//127 208//128
f 201//113 211//129 199//130
f 212//131 211//129 200//132
f 206//67 205//133 213//134
f 205//133 214//135 213//134
f 207//127 210//126 214//135
f 210//126 197//136 212//131
f 210//126 212//131 214//135
f 214//135 212//131 202//137
f 203//138 214//135 202//137
f 199//130 211//129 212//131
f 198//124 197//136 210//126
f 204//92 209//125 208//128
f 201//113 200//132 211//129
f 206//67 213//134 203//138
f 210//126 208//128 209//125
f 212//131 200//132 202//137
f 205//133 207//127 214//135
f 203//138 213//134 214//135
f 199//130 212//131 197//136
f 198//124 210//126 209//125
f 216//39 218//39 205//133 206//67
f 207//127 205//133 218//39 219//39
f 204//92 208//128 217//39 215//39
f 207//127 219//39 217//39 208//128
f 201//113 196//57 221//57 200//132
f 200//132 221//57 223//57 202//137
f 202//137 223//57 222//57 203//138
f 203//138 222//57 220//57 206//67
f 204//92 224//91 226//91 198//124
f 198//124 226//91 228//91 197//136
f 197//136 228//91 227//91 199//130
f 199//130 227//91 225//91 201//113
f 395//19 396//19 259//19 340//19 260//139 400//139
f 399//19 400//139 253//139 333//19 254//140 398//19
f 397//19 398//19 261//19 341//19 262//139 394//19
f 393//19 394//19 251//139 332//19 252//19 396//19
f 251//139 394//19 262//139 343//19 263//19 344//19 128//19 127//19 125//19 17//19 18//19 329//19 250//19 331//19
f 261//19 398//19 254//140 335//19 255//19 336//19 187//19 185//19 183//19 126//19 128//19 344//19 264//19 342//19
f 253//139 400//139 260//139 338//19 257//19 337//19 71//19 70//19 184//19 186//19 187//19 336//19 256//19 334//19
f 350//20 269//20 349//20 356//20 276//20 354//20 273//20 353//20 21//20 20//20 129//20 131//20 132//20 352//20 272//20
f 348//20 356//20 349//20 357//20
f 349//20 270//20 351//20 271//20 352//20 132//20 130//20 136//20 159//20 161//20 360//20 280//20 358//20 277//20 357//20
f 285//141 365//39 364//39 284//141 362//141 281//141 361//39 100//39 98//39 97//39 42//39 44//39 43//39 154//39 156//39 157//39 368//39 288//141 366//141
f 348//20 268//20 346//20 265//20 345//20 47//20 45//20 25//20 19//20 21//20 353//20 274//20 355//20 275//20 356//20
f 347//20 267//20 348//20 357//20 278//20 359//20 279//20 360//20 161//20 160//20 158//20 46//20 47//20 345//20 266//20
f 243//57 324//57 317//57 238//57 319//57 239//57 320//57 325//57 246//57 327//57 247//57 328//57 223//57 221//57 196//57 189//57 191//57 190//57 188//57 73//57 74//57 321//57 242//57 323//57
f 75//21 234//142 315//21 235//21 105//21 77//21 78//21 76//21
f 381//143 302//143 383//143 303//91 226//91 224//91 306//91 387//143 307//143 388//143 308//91 311//91 392//143 312//143 390//143 309//91 192//91 193//91 296//144 374//143 293//143 373//143 294//145 301//91
f 379//144 299//146 292//91 370//91 289//91 369//91 290//91 163//91 165//91 164//91 162//91 134//91 135//91 133//91 297//144 377//145 298//91
f 380//146 300//146 378//146 297//144 133//91 192//91 309//91 389//146 310//146 391//146 311//91 308//91 386//146 305//146 385//146 306//91 224//91 163//91 290//91 371//146 291//146 372//146 292//91 299//146
f 382//91 301//91 294//145 375//144 295//91 376//145 296//144 193//91 195//91 194//91 225//91 227//91 228//91 226//91 303//91 384//91 304//91
f 104//21 236//21 314//147 233//148 48//21 50//21 51//21 49//21
f 24//21 23//21 48//21 233//148 313//149 234//142 75//21 22//21
f 105//21 235//21 316//149 236//21 104//21 106//21 108//21 107//21
f 259//19 396//19 252//19 330//19 249//19 329//19 18//19 16//19 68//19 69//19 71//19 337//19 258//19 339//19
f 364//39 365//39 286//150 367//150 287//150 368//39 157//39 155//39 215//39 217//39 219//39 218//39 216//39 99//39 100//39 361//39 282//150 363//150 283//150
f 317//57 324//57 244//151 322//151 241//151 321//57 74//57 72//57 79//57 101//57 103//57 102//57 220//57 222//57 223//57 328//57 248//151 326//151 245//151 325//57 320//57 240//151 318//151 237//151
usemtl Dots.001
f 744//152 743//153 402//154 481//155
f 736//156 735//157 406//158 485//159
f 728//160 727//161 751//162 750//163
f 720//156 719//157 410//158 489//159
f 712//156 711//157 414//158 493//159
f 704//160 703//161 418//162 497//163
f 696//160 695//161 422//162 501//163
f 688//164 687//165 426//166 505//167
f 680//164 679//165 430//166 509//167
f 672//168 671//169 434//170 513//171
f 664//168 663//169 438//170 517//171
f 656//172 655//173 442//174 521//175
f 648//172 647//173 446//174 525//175
f 640//176 639//177 450//178 529//179
f 632//176 631//177 454//178 533//179
f 624//180 623//181 458//182 537//183
f 616//180 615//181 462//182 541//183
f 608//184 607//185 466//186 545//187
f 600//184 599//185 470//186 549//187
f 592//180 591//181 474//182 553//183
f 584//184 583//185 478//186 557//187
f 477//188 558//189 586//190 585//191
f 589//181 588//192 560//193 479//182
f 477//188 585//191 584//184 557//187
f 473//186 554//187 594//184 593//185
f 597//194 596//190 556//189 475//195
f 473//186 593//185 592//180 553//183
f 469//188 550//189 602//190 601//191
f 605//181 604//192 552//193 471//182
f 469//188 601//191 600//184 549//187
f 465//188 546//189 610//190 609//191
f 613//181 612//192 548//193 467//182
f 465//188 609//191 608//184 545//187
f 461//186 542//187 618//184 617//185
f 621//194 620//190 544//189 463//195
f 461//186 617//185 616//180 541//183
f 457//186 538//187 626//184 625//185
f 629//194 628//190 540//189 459//195
f 457//186 625//185 624//180 537//183
f 453//196 534//197 634//198 633//199
f 637//200 636//201 536//202 455//203
f 453//196 633//199 632//176 533//179
f 449//196 530//197 642//198 641//199
f 645//200 644//201 532//202 451//203
f 449//196 641//199 640//176 529//179
f 445//204 526//205 650//206 649//207
f 653//169 652//208 528//209 447//170
f 445//204 649//207 648//172 525//175
f 441//204 522//205 658//206 657//207
f 661//169 660//208 524//209 443//170
f 441//204 657//207 656//172 521//175
f 437//174 518//175 666//172 665//173
f 669//210 668//206 520//205 439//211
f 437//174 665//173 664//168 517//171
f 433//174 514//175 674//172 673//173
f 677//210 676//206 516//205 435//211
f 433//174 673//173 672//168 513//171
f 429//212 510//213 682//214 681//215
f 685//161 684//216 512//217 431//162
f 429//212 681//215 680//164 509//167
f 425//212 506//213 690//214 689//215
f 693//161 692//216 508//217 427//162
f 425//212 689//215 688//164 505//167
f 421//166 502//167 698//164 697//165
f 701//218 700//214 504//213 423//219
f 421//166 697//165 696//160 501//163
f 417//166 498//167 706//164 705//165
f 709//218 708//214 500//213 419//219
f 417//166 705//165 704//160 497//163
f 413//220 494//221 714//222 713//223
f 717//224 716//225 496//226 415//227
f 413//220 713//223 712//156 493//159
f 409//220 490//221 722//222 721//223
f 725//224 724//225 492//226 411//227
f 409//220 721//223 720//156 489//159
f 753//166 752//167 730//164 729//165
f 733//218 732//214 756//213 755//219
f 753//166 729//165 728//160 750//163
f 405//220 486//221 738//222 737//223
f 741//224 740//225 488//226 407//227
f 405//220 737//223 736//156 485//159
f 401//228 482//229 746//230 745//231
f 749//232 748//233 484//234 403//235
f 401//228 745//231 744//152 481//155
f 742//236 749//232 403//235 483//237
f 734//238 741//224 407//227 487//239
f 726//216 733//218 755//219 754//217
f 718//238 725//224 411//227 491//239
f 710//238 717//224 415//227 495//239
f 702//216 709//218 419//219 499//217
f 694//216 701//218 423//219 503//217
f 686//160 693//161 427//162 507//163
f 678//160 685//161 431//162 511//163
f 670//208 677//210 435//211 515//209
f 662//208 669//210 439//211 519//209
f 654//168 661//169 443//170 523//171
f 646//168 653//169 447//170 527//171
f 638//240 645//200 451//203 531//241
f 630//240 637//200 455//203 535//241
f 622//192 629//194 459//195 539//193
f 614//192 621//194 463//195 543//193
f 606//180 613//181 467//182 547//183
f 598//180 605//181 471//182 551//183
f 590//192 597//194 475//195 555//193
f 582//180 589//181 479//182 559//183
f 480//195 587//194 586//190 558//189
f 480//195 560//193 588//192 587//194
f 591//181 590//192 555//193 474//182
f 476//188 595//191 594//184 554//187
f 476//188 556//189 596//190 595//191
f 599//185 598//180 551//183 470//186
f 472//195 603//194 602//190 550//189
f 472//195 552//193 604//192 603//194
f 607//185 606//180 547//183 466//186
f 468//195 611//194 610//190 546//189
f 468//195 548//193 612//192 611//194
f 615//181 614//192 543//193 462//182
f 464//188 619//191 618//184 542//187
f 464//188 544//189 620//190 619//191
f 623//181 622//192 539//193 458//182
f 460//188 627//191 626//184 538//187
f 460//188 540//189 628//190 627//191
f 631//177 630//240 535//241 454//178
f 456//242 635//243 634//198 534//197
f 456//242 536//202 636//201 635//243
f 639//177 638//240 531//241 450//178
f 452//242 643//243 642//198 530//197
f 452//242 532//202 644//201 643//243
f 647//173 646//168 527//171 446//174
f 448//211 651//210 650//206 526//205
f 448//211 528//209 652//208 651//210
f 655//173 654//168 523//171 442//174
f 444//211 659//210 658//206 522//205
f 444//211 524//209 660//208 659//210
f 663//169 662//208 519//209 438//170
f 440//204 667//207 666//172 518//175
f 440//204 520//205 668//206 667//207
f 671//169 670//208 515//209 434//170
f 436//204 675//207 674//172 514//175
f 436//204 516//205 676//206 675//207
f 679//165 678//160 511//163 430//166
f 432//219 683//218 682//214 510//213
f 432//219 512//217 684//216 683//218
f 687//165 686//160 507//163 426//166
f 428//219 691//218 690//214 506//213
f 428//219 508//217 692//216 691//218
f 695//161 694//216 503//217 422//162
f 424//212 699//215 698//164 502//167
f 424//212 504//213 700//214 699//215
f 703//161 702//216 499//217 418//162
f 420//212 707//215 706//164 498//167
f 420//212 500//213 708//214 707//215
f 711//157 710//238 495//239 414//158
f 416//244 715//245 714//222 494//221
f 416//244 496//226 716//225 715//245
f 719//157 718//238 491//239 410//158
f 412//244 723//245 722//222 490//221
f 412//244 492//226 724//225 723//245
f 727//161 726//216 754//217 751//162
f 757//212 731//215 730//164 752//167
f 757//212 756//213 732//214 731//215
f 735//157 734//238 487//239 406//158
f 408//244 739//245 738//222 486//221
f 408//244 488//226 740//225 739//245
f 743//153 742//236 483//237 402//154
f 404//246 747//247 746//230 482//229
f 404//246 484//234 748//233 747//247
f 583//185 582//180 559//183 478//186
f 561//91 582//180 583//185
f 561//91 583//185 584//184
f 561//91 584//184 585//191
f 561//91 585//191 586//190
f 561//91 586//190 587//194
f 561//91 587//194 588//192
f 561//91 588//192 589//181
f 561//91 589//181 582//180
f 562//91 590//192 591//181
f 562//91 591//181 592//180
f 562//91 592//180 593//185
f 562//91 593//185 594//184
f 562//91 594//184 595//191
f 562//91 595//191 596//190
f 562//91 596//190 597//194
f 562//91 597//194 590//192
f 563//91 598//180 599//185
f 563//91 599//185 600//184
f 563//91 600//184 601//191
f 563//91 601//191 602//190
f 563//91 602//190 603//194
f 563//91 603//194 604//192
f 563//91 604//192 605//181
f 563//91 605//181 598//180
f 564//91 606//180 607//185
f 564//91 607//185 608//184
f 564//91 608//184 609//191
f 564//91 609//191 610//190
f 564//91 610//190 611//194
f 564//91 611//194 612//192
f 564//91 612//192 613//181
f 564//91 613//181 606//180
f 565//91 614//192 615//181
f 565//91 615//181 616//180
f 565//91 616//180 617//185
f 565//91 617//185 618//184
f 565//91 618//184 619//191
f 565//91 619//191 620//190
f 565//91 620//190 621//194
f 565//91 621//194 614//192
f 566//91 622//192 623//181
f 566//91 623//181 624//180
f 566//91 624//180 625//185
f 566//91 625//185 626//184
f 566//91 626//184 627//191
f 566//91 627//191 628//190
f 566//91 628//190 629//194
f 566//91 629//194 622//192
f 567//39 630//240 631//177
f 567//39 631//177 632//176
f 567//39 632//176 633//199
f 567//39 633//199 634//198
f 567//39 634//198 635//243
f 567//39 635//243 636//201
f 567//39 636//201 637//200
f 567//39 637//200 630//240
f 568//39 638//240 639//177
f 568//39 639//177 640//176
f 568//39 640//176 641//199
f 568//39 641//199 642//198
f 568//39 642//198 643//243
f 568//39 643//243 644//201
f 568//39 644//201 645//200
f 568//39 645//200 638//240
f 569//20 646//168 647//173
f 569//20 647//173 648//172
f 569//20 648//172 649//207
f 569//20 649//207 650//206
f 569//20 650//206 651//210
f 569//20 651//210 652//208
f 569//20 652//208 653//169
f 569//20 653//169 646//168
f 570//20 654//168 655//173
f 570//20 655//173 656//172
f 570//20 656//172 657//207
f 570//20 657//207 658//206
f 570//20 658//206 659//210
f 570//20 659//210 660//208
f 570//20 660//208 661//169
f 570//20 661//169 654//168
f 571//20 662//208 663//169
f 571//20 663//169 664//168
f 571//20 664//168 665//173
f 571//20 665//173 666//172
f 571//20 666//172 667//207
f 571//20 667//207 668//206
f 571//20 668//206 669//210
f 571//20 669//210 662//208
f 572//20 670//208 671//169
f 572//20 671//169 672//168
f 572//20 672//168 673//173
f 572//20 673//173 674//172
f 572//20 674//172 675//207
f 572//20 675//207 676//206
f 572//20 676//206 677//210
f 572//20 677//210 670//208
f 573//19 678//160 679//165
f 573//19 679//165 680//164
f 573//19 680//164 681//215
f 573//19 681//215 682//214
f 573//19 682//214 683//218
f 573//19 683//218 684//216
f 573//19 684//216 685//161
f 573//19 685//161 678//160
f 574//19 686//160 687//165
f 574//19 687//165 688//164
f 574//19 688//164 689//215
f 574//19 689//215 690//214
f 574//19 690//214 691//218
f 574//19 691//218 692//216
f 574//19 692//216 693//161
f 574//19 693//161 686//160
f 575//19 694//216 695//161
f 575//19 695//161 696//160
f 575//19 696//160 697//165
f 575//19 697//165 698//164
f 575//19 698//164 699//215
f 575//19 699//215 700//214
f 575//19 700//214 701//218
f 575//19 701//218 694//216
f 576//19 702//216 703//161
f 576//19 703//161 704//160
f 576//19 704//160 705//165
f 576//19 705//165 706//164
f 576//19 706//164 707//215
f 576//19 707//215 708//214
f 576//19 708//214 709//218
f 576//19 709//218 702//216
f 577//57 710//238 711//157
f 577//57 711//157 712//156
f 577//57 712//156 713//223
f 577//57 713//223 714//222
f 577//57 714//222 715//245
f 577//57 715//245 716//225
f 577//57 716//225 717//224
f 577//57 717//224 710//238
f 578//57 718//238 719//157
f 578//57 719//157 720//156
f 578//57 720//156 721//223
f 578//57 721//223 722//222
f 578//57 722//222 723//245
f 578//57 723//245 724//225
f 578//57 724//225 725//224
f 578//57 725//224 718//238
f 579//19 726//216 727//161
f 579//19 727//161 728//160
f 579//19 728//160 729//165
f 579//19 729//165 730//164
f 579//19 730//164 731//215
f 579//19 731//215 732//214
f 579//19 732//214 733//218
f 579//19 733//218 726//216
f 580//57 734//238 735//157
f 580//57 735//157 736//156
f 580//57 736//156 737//223
f 580//57 737//223 738//222
f 580//57 738//222 739//245
f 580//57 739//245 740//225
f 580//57 740//225 741//224
f 580//57 741//224 734//238
f 581//21 742//236 743//153
f 581//21 743//153 744//152
f 581//21 744//152 745//231
f 581//21 745//231 746//230
f 581//21 746//230 747//247
f 581//21 747//247 748//233
f 581//21 748//233 749//232
f 581//21 749//232 742//236
