# Blender v2.79 (sub 0) OBJ File: ''
# www.blender.org
mtllib dice.mtl
v 0.408223 0.408223 -0.408223
v 0.185814 0.500000 -0.448596
v 0.343340 0.500000 -0.343341
v 0.343340 0.343341 -0.500000
v 0.185814 0.448596 -0.500000
v 0.448596 0.185815 -0.500000
v 0.448596 0.500000 -0.185815
v 0.500000 0.343341 -0.343340
v 0.500000 0.185815 -0.448596
v 0.500000 0.448596 -0.185814
v -0.408223 0.408223 -0.408223
v -0.185814 0.500000 -0.448596
v -0.343340 0.500000 -0.343341
v -0.343340 0.343341 -0.500000
v -0.185814 0.448596 -0.500000
v -0.448596 0.185815 -0.500000
v -0.448596 0.500000 -0.185815
v -0.500000 0.343341 -0.343340
v -0.500000 0.185815 -0.448596
v -0.500000 0.448596 -0.185814
v -0.000000 0.500000 -0.475880
v 0.000000 0.475880 -0.500000
v 0.408223 0.408223 0.408223
v 0.185814 0.500000 0.448596
v 0.343340 0.500000 0.343341
v 0.343340 0.343341 0.500000
v 0.185814 0.448596 0.500000
v 0.448596 0.185815 0.500000
v 0.448596 0.500000 0.185815
v 0.500000 0.343341 0.343340
v 0.500000 0.185815 0.448596
v 0.500000 0.448596 0.185814
v 0.500000 0.475880 -0.000000
v 0.475880 0.500000 -0.000000
v -0.408223 0.408223 0.408223
v -0.185814 0.500000 0.448596
v -0.343340 0.500000 0.343341
v -0.343340 0.343341 0.500000
v -0.185814 0.448596 0.500000
v -0.448596 0.185815 0.500000
v -0.448596 0.500000 0.185815
v -0.500000 0.343341 0.343340
v -0.500000 0.185815 0.448596
v -0.500000 0.448596 0.185814
v -0.500000 0.475880 -0.000000
v -0.000000 0.500000 0.475880
v -0.475880 0.500000 -0.000000
v 0.000000 0.475880 0.500000
v 0.408223 -0.408223 -0.408223
v 0.185814 -0.500000 -0.448596
v 0.343340 -0.500000 -0.343341
v 0.343340 -0.343341 -0.500000
v 0.185814 -0.448596 -0.500000
v 0.448596 -0.185815 -0.500000
v 0.448596 -0.500000 -0.185815
v 0.500000 -0.343341 -0.343340
v 0.500000 -0.185815 -0.448596
v 0.500000 -0.448596 -0.185814
v 0.500000 0.000000 -0.475880
v 0.475880 -0.000000 -0.500000
v -0.408223 -0.408223 -0.408223
v -0.185814 -0.500000 -0.448596
v -0.343340 -0.500000 -0.343341
v -0.343340 -0.343341 -0.500000
v -0.185814 -0.448596 -0.500000
v -0.448596 -0.185815 -0.500000
v -0.448596 -0.500000 -0.185815
v -0.500000 -0.343341 -0.343340
v -0.500000 -0.185815 -0.448596
v -0.500000 -0.448596 -0.185814
v -0.000000 -0.500000 -0.475880
v -0.500000 0.000000 -0.475880
v 0.000000 -0.475880 -0.500000
v -0.475880 -0.000000 -0.500000
v 0.408223 -0.408223 0.408223
v 0.185814 -0.500000 0.448596
v 0.343340 -0.500000 0.343341
v 0.343340 -0.343341 0.500000
v 0.185814 -0.448596 0.500000
v 0.448596 -0.185815 0.500000
v 0.448596 -0.500000 0.185815
v 0.500000 -0.343341 0.343340
v 0.500000 -0.185815 0.448596
v 0.500000 -0.448596 0.185814
v 0.500000 -0.475880 -0.000000
v 0.475880 -0.500000 -0.000000
v 0.500000 0.000000 0.475880
v 0.475880 -0.000000 0.500000
v -0.408223 -0.408223 0.408223
v -0.185814 -0.500000 0.448596
v -0.343340 -0.500000 0.343341
v -0.343340 -0.343341 0.500000
v -0.185814 -0.448596 0.500000
v -0.448596 -0.185815 0.500000
v -0.448596 -0.500000 0.185815
v -0.500000 -0.343341 0.343340
v -0.500000 -0.185815 0.448596
v -0.500000 -0.448596 0.185814
v -0.500000 -0.475880 -0.000000
v -0.000000 -0.500000 0.475880
v -0.475880 -0.500000 -0.000000
v -0.500000 0.000000 0.475880
v 0.000000 -0.475880 0.500000
v -0.475880 -0.000000 0.500000
v -0.000000 0.500000 -0.105000
v -0.099861 0.500000 -0.032447
v -0.061717 0.500000 0.084947
v 0.061717 0.500000 0.084947
v 0.099861 0.500000 -0.032447
v 0.000000 0.450000 0.000000
v -0.000000 0.105000 0.500000
v -0.099861 0.032447 0.500000
v -0.061717 -0.084947 0.500000
v 0.061717 -0.084947 0.500000
v 0.099861 0.032447 0.500000
v 0.000000 -0.000000 0.450000
v 0.500000 0.105000 0.000000
v 0.500000 0.032447 0.099861
v 0.500000 -0.084947 0.061717
v 0.500000 -0.084947 -0.061718
v 0.500000 0.032447 -0.099861
v 0.450000 -0.000000 -0.000000
v 0.218750 0.323750 0.500000
v 0.118889 0.251197 0.500000
v 0.157033 0.133803 0.500000
v 0.280467 0.133803 0.500000
v 0.318611 0.251197 0.500000
v 0.218750 0.218750 0.450000
v -0.218750 -0.113750 0.500000
v -0.318611 -0.186303 0.500000
v -0.280467 -0.303697 0.500000
v -0.157033 -0.303697 0.500000
v -0.118889 -0.186303 0.500000
v -0.218750 -0.218750 0.450000
v 0.500000 0.323750 -0.218750
v 0.500000 0.251197 -0.118889
v 0.500000 0.133803 -0.157033
v 0.500000 0.133803 -0.280467
v 0.500000 0.251197 -0.318611
v 0.450000 0.218750 -0.218750
v 0.500000 -0.113750 0.218750
v 0.500000 -0.186303 0.318611
v 0.500000 -0.303697 0.280467
v 0.500000 -0.303697 0.157033
v 0.500000 -0.186303 0.118889
v 0.450000 -0.218750 0.218750
v 0.500000 0.323750 0.218750
v 0.500000 0.251197 0.118889
v 0.500000 0.133803 0.157033
v 0.500000 0.133803 0.280467
v 0.500000 0.251197 0.318611
v 0.450000 0.218750 0.218750
v 0.500000 -0.113750 -0.218750
v 0.500000 -0.186303 -0.318611
v 0.500000 -0.303697 -0.280467
v 0.500000 -0.303697 -0.157033
v 0.500000 -0.186303 -0.118889
v 0.450000 -0.218750 -0.218750
v -0.218750 0.323750 -0.500000
v -0.118889 0.251197 -0.500000
v -0.157033 0.133803 -0.500000
v -0.280467 0.133803 -0.500000
v -0.318611 0.251197 -0.500000
v -0.218750 0.218750 -0.450000
v 0.218750 -0.113750 -0.500000
v 0.318611 -0.186303 -0.500000
v 0.280467 -0.303697 -0.500000
v 0.157033 -0.303697 -0.500000
v 0.118889 -0.186303 -0.500000
v 0.218750 -0.218750 -0.450000
v 0.218750 0.323750 -0.500000
v 0.118889 0.251197 -0.500000
v 0.157033 0.133803 -0.500000
v 0.280467 0.133803 -0.500000
v 0.318611 0.251197 -0.500000
v 0.218750 0.218750 -0.450000
v -0.218750 -0.113750 -0.500000
v -0.318611 -0.186303 -0.500000
v -0.280467 -0.303697 -0.500000
v -0.157033 -0.303697 -0.500000
v -0.118889 -0.186303 -0.500000
v -0.218750 -0.218750 -0.450000
v -0.500000 0.323750 0.218750
v -0.500000 0.251197 0.118889
v -0.500000 0.133803 0.157033
v -0.500000 0.133803 0.280467
v -0.500000 0.251197 0.318611
v -0.450000 0.218750 0.218750
v -0.500000 -0.113750 -0.218750
v -0.500000 -0.186303 -0.318611
v -0.500000 -0.303697 -0.280467
v -0.500000 -0.303697 -0.157033
v -0.500000 -0.186303 -0.118889
v -0.450000 -0.218750 -0.218750
v -0.218750 -0.500000 -0.323750
v -0.118889 -0.500000 -0.251197
v -0.157033 -0.500000 -0.133803
v -0.280467 -0.500000 -0.133803
v -0.318611 -0.500000 -0.251197
v -0.218750 -0.450000 -0.218750
v 0.218750 -0.500000 0.113750
v 0.318611 -0.500000 0.186303
v 0.280467 -0.500000 0.303697
v 0.157033 -0.500000 0.303697
v 0.118889 -0.500000 0.186303
v 0.218750 -0.450000 0.218750
v 0.218750 -0.500000 -0.323750
v 0.118889 -0.500000 -0.251197
v 0.157033 -0.500000 -0.133803
v 0.280467 -0.500000 -0.133803
v 0.318611 -0.500000 -0.251197
v 0.218750 -0.450000 -0.218750
v -0.218750 -0.500000 0.113750
v -0.318611 -0.500000 0.186303
v -0.280467 -0.500000 0.303697
v -0.157033 -0.500000 0.303697
v -0.118889 -0.500000 0.186303
v -0.218750 -0.450000 0.218750
v -0.218750 -0.500000 -0.105000
v -0.118889 -0.500000 -0.032447
v -0.157033 -0.500000 0.084947
v -0.280467 -0.500000 0.084947
v -0.318611 -0.500000 -0.032447
v -0.218750 -0.450000 0.000000
v 0.218750 -0.500000 -0.105000
v 0.118889 -0.500000 -0.032447
v 0.157033 -0.500000 0.084947
v 0.280467 -0.500000 0.084947
v 0.318611 -0.500000 -0.032447
v 0.218750 -0.450000 0.000000
v 0.185814 0.500000 -0.448596
v 0.343340 0.500000 -0.343341
v 0.343340 0.343341 -0.500000
v 0.185814 0.448596 -0.500000
v 0.448596 0.185815 -0.500000
v 0.448596 0.500000 -0.185815
v 0.500000 0.343341 -0.343340
v 0.500000 0.185815 -0.448596
v 0.500000 0.448596 -0.185814
v -0.185814 0.500000 -0.448596
v -0.343340 0.500000 -0.343341
v -0.343340 0.343341 -0.500000
v -0.185814 0.448596 -0.500000
v -0.448596 0.185815 -0.500000
v -0.448596 0.500000 -0.185815
v -0.500000 0.343341 -0.343340
v -0.500000 0.185815 -0.448596
v -0.500000 0.448596 -0.185814
v -0.000000 0.500000 -0.475880
v 0.000000 0.475880 -0.500000
v 0.185814 0.500000 0.448596
v 0.343340 0.500000 0.343341
v 0.343340 0.343341 0.500000
v 0.185814 0.448596 0.500000
v 0.448596 0.185815 0.500000
v 0.448596 0.500000 0.185815
v 0.500000 0.343341 0.343340
v 0.500000 0.185815 0.448596
v 0.500000 0.448596 0.185814
v 0.500000 0.475880 -0.000000
v 0.475880 0.500000 -0.000000
v -0.185814 0.500000 0.448596
v -0.343340 0.500000 0.343341
v -0.343340 0.343341 0.500000
v -0.185814 0.448596 0.500000
v -0.448596 0.185815 0.500000
v -0.448596 0.500000 0.185815
v -0.500000 0.343341 0.343340
v -0.500000 0.185815 0.448596
v -0.500000 0.448596 0.185814
v -0.500000 0.475880 -0.000000
v -0.000000 0.500000 0.475880
v -0.475880 0.500000 -0.000000
v 0.000000 0.475880 0.500000
v 0.185814 -0.500000 -0.448596
v 0.343340 -0.500000 -0.343341
v 0.343340 -0.343341 -0.500000
v 0.185814 -0.448596 -0.500000
v 0.448596 -0.185815 -0.500000
v 0.448596 -0.500000 -0.185815
v 0.500000 -0.343341 -0.343340
v 0.500000 -0.185815 -0.448596
v 0.500000 -0.448596 -0.185814
v 0.500000 0.000000 -0.475880
v 0.475880 -0.000000 -0.500000
v -0.185814 -0.500000 -0.448596
v -0.343340 -0.500000 -0.343341
v -0.343340 -0.343341 -0.500000
v -0.185814 -0.448596 -0.500000
v -0.448596 -0.185815 -0.500000
v -0.448596 -0.500000 -0.185815
v -0.500000 -0.343341 -0.343340
v -0.500000 -0.185815 -0.448596
v -0.500000 -0.448596 -0.185814
v -0.000000 -0.500000 -0.475880
v -0.500000 0.000000 -0.475880
v 0.000000 -0.475880 -0.500000
v -0.475880 -0.000000 -0.500000
v 0.185814 -0.500000 0.448596
v 0.343340 -0.500000 0.343341
v 0.343340 -0.343341 0.500000
v 0.185814 -0.448596 0.500000
v 0.448596 -0.185815 0.500000
v 0.448596 -0.500000 0.185815
v 0.500000 -0.343341 0.343340
v 0.500000 -0.185815 0.448596
v 0.500000 -0.448596 0.185814
v 0.500000 -0.475880 -0.000000
v 0.475880 -0.500000 -0.000000
v 0.500000 0.000000 0.475880
v 0.475880 -0.000000 0.500000
v -0.185814 -0.500000 0.448596
v -0.343340 -0.500000 0.343341
v -0.343340 -0.343341 0.500000
v -0.185814 -0.448596 0.500000
v -0.448596 -0.185815 0.500000
v -0.448596 -0.500000 0.185815
v -0.500000 -0.343341 0.343340
v -0.500000 -0.185815 0.448596
v -0.500000 -0.448596 0.185814
v -0.500000 -0.475880 -0.000000
v -0.000000 -0.500000 0.475880
v -0.475880 -0.500000 -0.000000
v -0.500000 0.000000 0.475880
v 0.000000 -0.475880 0.500000
v -0.475880 -0.000000 0.500000
v -0.000000 0.500000 -0.105000
v -0.099861 0.500000 -0.032447
v -0.061717 0.500000 0.084947
v 0.061717 0.500000 0.084947
v 0.099861 0.500000 -0.032447
v -0.000000 0.105000 0.500000
v -0.099861 0.032447 0.500000
v -0.061717 -0.084947 0.500000
v 0.061717 -0.084947 0.500000
v 0.099861 0.032447 0.500000
v 0.500000 0.105000 0.000000
v 0.500000 0.032447 0.099861
v 0.500000 -0.084947 0.061717
v 0.500000 -0.084947 -0.061718
v 0.500000 0.032447 -0.099861
v 0.218750 0.323750 0.500000
v 0.118889 0.251197 0.500000
v 0.157033 0.133803 0.500000
v 0.280467 0.133803 0.500000
v 0.318611 0.251197 0.500000
v -0.218750 -0.113750 0.500000
v -0.318611 -0.186303 0.500000
v -0.280467 -0.303697 0.500000
v -0.157033 -0.303697 0.500000
v -0.118889 -0.186303 0.500000
v 0.500000 0.323750 -0.218750
v 0.500000 0.251197 -0.118889
v 0.500000 0.133803 -0.157033
v 0.500000 0.133803 -0.280467
v 0.500000 0.251197 -0.318611
v 0.500000 -0.113750 0.218750
v 0.500000 -0.186303 0.318611
v 0.500000 -0.303697 0.280467
v 0.500000 -0.303697 0.157033
v 0.500000 -0.186303 0.118889
v 0.500000 0.323750 0.218750
v 0.500000 0.251197 0.118889
v 0.500000 0.133803 0.157033
v 0.500000 0.133803 0.280467
v 0.500000 0.251197 0.318611
v 0.500000 -0.113750 -0.218750
v 0.500000 -0.186303 -0.318611
v 0.500000 -0.303697 -0.280467
v 0.500000 -0.303697 -0.157033
v 0.500000 -0.186303 -0.118889
v -0.218750 0.323750 -0.500000
v -0.118889 0.251197 -0.500000
v -0.157033 0.133803 -0.500000
v -0.280467 0.133803 -0.500000
v -0.318611 0.251197 -0.500000
v 0.218750 -0.113750 -0.500000
v 0.318611 -0.186303 -0.500000
v 0.280467 -0.303697 -0.500000
v 0.157033 -0.303697 -0.500000
v 0.118889 -0.186303 -0.500000
v 0.218750 0.323750 -0.500000
v 0.118889 0.251197 -0.500000
v 0.157033 0.133803 -0.500000
v 0.280467 0.133803 -0.500000
v 0.318611 0.251197 -0.500000
v -0.218750 -0.113750 -0.500000
v -0.318611 -0.186303 -0.500000
v -0.280467 -0.303697 -0.500000
v -0.157033 -0.303697 -0.500000
v -0.118889 -0.186303 -0.500000
v -0.500000 0.323750 0.218750
v -0.500000 0.251197 0.118889
v -0.500000 0.133803 0.157033
v -0.500000 0.133803 0.280467
v -0.500000 0.251197 0.318611
v -0.500000 -0.113750 -0.218750
v -0.500000 -0.186303 -0.318611
v -0.500000 -0.303697 -0.280467
v -0.500000 -0.303697 -0.157033
v -0.500000 -0.186303 -0.118889
v -0.218750 -0.500000 -0.323750
v -0.118889 -0.500000 -0.251197
v -0.157033 -0.500000 -0.133803
v -0.280467 -0.500000 -0.133803
v -0.318611 -0.500000 -0.251197
v 0.218750 -0.500000 0.113750
v 0.318611 -0.500000 0.186303
v 0.280467 -0.500000 0.303697
v 0.157033 -0.500000 0.303697
v 0.118889 -0.500000 0.186303
v 0.218750 -0.500000 -0.323750
v 0.118889 -0.500000 -0.251197
v 0.157033 -0.500000 -0.133803
v 0.280467 -0.500000 -0.133803
v 0.318611 -0.500000 -0.251197
v -0.218750 -0.500000 0.113750
v -0.318611 -0.500000 0.186303
v -0.280467 -0.500000 0.303697
v -0.157033 -0.500000 0.303697
v -0.118889 -0.500000 0.186303
v -0.218750 -0.500000 -0.105000
v -0.118889 -0.500000 -0.032447
v -0.157033 -0.500000 0.084947
v -0.280467 -0.500000 0.084947
v -0.318611 -0.500000 -0.032447
v 0.218750 -0.500000 -0.105000
v 0.118889 -0.500000 -0.032447
v 0.157033 -0.500000 0.084947
v 0.280467 -0.500000 0.084947
v 0.318611 -0.500000 -0.032447
vn -0.0036 0.6916 -0.7223
vn -0.0142 0.7184 -0.6955
vn 0.2777 0.7049 -0.6527
vn 0.2656 0.6413 -0.7198
vn 0.6775 0.7355 0.0000
vn 0.7296 0.6839 0.0000
vn 0.7223 0.6424 -0.2561
vn 0.6381 0.7237 -0.2629
vn 0.7127 0.4983 -0.4937
vn 0.5858 0.5752 -0.5710
vn 0.7258 0.2791 -0.6287
vn 0.7320 0.0001 -0.6813
vn 0.6760 0.0001 -0.7369
vn 0.6423 0.2743 -0.7157
vn 0.5077 0.7053 -0.4948
vn 0.4839 0.5023 -0.7166
vn -0.2774 0.6316 -0.7239
vn -0.2759 0.7076 -0.6505
vn -0.6798 0.7334 -0.0000
vn -0.6533 0.7048 -0.2767
vn -0.7281 0.6365 -0.2545
vn -0.7297 0.6838 -0.0000
vn -0.7253 0.4808 -0.4927
vn -0.5768 0.5865 -0.5686
vn -0.7193 0.2802 -0.6357
vn -0.7320 -0.0001 -0.6813
vn -0.6361 0.2590 -0.7268
vn -0.6760 -0.0001 -0.7369
vn -0.5051 0.7145 -0.4841
vn -0.4937 0.4831 -0.7231
vn -0.0036 0.6916 0.7223
vn 0.2656 0.6413 0.7198
vn 0.2777 0.7049 0.6527
vn -0.0142 0.7184 0.6955
vn 0.6381 0.7237 0.2629
vn 0.7223 0.6424 0.2561
vn 0.7127 0.4983 0.4937
vn 0.5858 0.5752 0.5709
vn 0.7258 0.2791 0.6287
vn 0.7320 0.0001 0.6813
vn 0.6423 0.2743 0.7157
vn 0.6760 0.0001 0.7369
vn 0.5077 0.7053 0.4948
vn 0.4840 0.5023 0.7166
vn -0.2759 0.7076 0.6505
vn -0.2774 0.6316 0.7239
vn -0.7281 0.6365 0.2545
vn -0.6533 0.7048 0.2767
vn -0.7253 0.4808 0.4927
vn -0.5768 0.5865 0.5686
vn -0.7193 0.2802 0.6357
vn -0.7320 -0.0001 0.6813
vn -0.6760 -0.0001 0.7369
vn -0.6361 0.2590 0.7268
vn -0.5051 0.7145 0.4841
vn -0.4937 0.4831 0.7231
vn 0.0036 -0.6916 -0.7223
vn 0.2774 -0.6316 -0.7239
vn 0.2759 -0.7076 -0.6505
vn 0.0142 -0.7184 -0.6955
vn 0.6798 -0.7334 -0.0000
vn 0.6533 -0.7048 -0.2767
vn 0.7281 -0.6365 -0.2545
vn 0.7297 -0.6838 -0.0000
vn 0.7253 -0.4808 -0.4927
vn 0.5768 -0.5865 -0.5686
vn 0.7193 -0.2802 -0.6357
vn 0.6361 -0.2590 -0.7268
vn 0.5051 -0.7145 -0.4841
vn 0.4937 -0.4831 -0.7231
vn -0.2777 -0.7049 -0.6527
vn -0.2656 -0.6413 -0.7198
vn -0.6775 -0.7355 0.0000
vn -0.7296 -0.6839 0.0000
vn -0.7223 -0.6424 -0.2561
vn -0.6381 -0.7237 -0.2629
vn -0.7127 -0.4983 -0.4937
vn -0.5858 -0.5752 -0.5710
vn -0.7258 -0.2791 -0.6287
vn -0.6423 -0.2743 -0.7157
vn -0.5077 -0.7053 -0.4948
vn -0.4839 -0.5023 -0.7166
vn 0.0036 -0.6916 0.7223
vn 0.0142 -0.7184 0.6955
vn 0.2759 -0.7076 0.6505
vn 0.2774 -0.6316 0.7239
vn 0.7281 -0.6365 0.2545
vn 0.6533 -0.7048 0.2767
vn 0.7253 -0.4808 0.4927
vn 0.5768 -0.5865 0.5686
vn 0.7193 -0.2802 0.6357
vn 0.6361 -0.2590 0.7268
vn 0.5051 -0.7145 0.4841
vn 0.4937 -0.4831 0.7231
vn -0.2656 -0.6413 0.7198
vn -0.2777 -0.7049 0.6527
vn -0.6381 -0.7237 0.2629
vn -0.7223 -0.6424 0.2561
vn -0.7127 -0.4983 0.4937
vn -0.5858 -0.5752 0.5709
vn -0.7258 -0.2791 0.6287
vn -0.6423 -0.2743 0.7157
vn -0.5077 -0.7053 0.4948
vn -0.4839 -0.5023 0.7166
vn 1.0000 -0.0000 0.0000
vn -0.0000 0.0000 -1.0000
vn -1.0000 0.0000 0.0000
vn 0.0000 -0.0000 1.0000
vn 0.0000 1.0000 0.0000
vn 0.0000 -1.0000 -0.0000
vn -0.4089 0.9029 0.1329
vn -0.0000 0.9029 0.4299
vn 0.2527 0.9029 -0.3478
vn -0.2527 0.9029 -0.3478
vn 0.4089 0.9029 0.1329
vn -0.4089 -0.1329 0.9029
vn 0.0000 -0.4299 0.9029
vn 0.2527 0.3478 0.9029
vn -0.2527 0.3478 0.9029
vn 0.4089 -0.1329 0.9029
vn 0.9029 -0.1329 0.4089
vn 0.9029 -0.4299 -0.0000
vn 0.9029 0.3478 -0.2527
vn 0.9029 0.3478 0.2527
vn 0.9029 -0.1329 -0.4089
vn 0.4089 -0.1329 -0.9029
vn -0.0000 -0.4299 -0.9029
vn -0.2527 0.3478 -0.9029
vn 0.2527 0.3478 -0.9029
vn -0.4089 -0.1329 -0.9029
vn -0.9029 -0.1329 -0.4089
vn -0.9029 -0.4299 -0.0000
vn -0.9029 0.3478 0.2527
vn -0.9029 0.3478 -0.2527
vn -0.9029 -0.1329 0.4089
vn 0.4089 -0.9029 0.1329
vn -0.0000 -0.9029 0.4299
vn -0.2527 -0.9029 -0.3478
vn 0.2527 -0.9029 -0.3478
vn -0.4089 -0.9029 0.1329
usemtl Ivory
s 1
f 22//1 21//2 2//3 5//4
f 34//5 33//6 10//7 7//8
f 8//9 1//10 10//7
f 1//10 5//4 2//3
f 1//10 8//9 9//11
f 59//12 60//13 6//14 9//11
f 3//15 7//8 1//10
f 1//10 7//8 10//7
f 3//15 1//10 2//3
f 4//16 5//4 1//10
f 6//14 1//10 9//11
f 4//16 1//10 6//14
f 22//1 15//17 12//18 21//2
f 47//19 17//20 20//21 45//22
f 18//23 20//21 11//24
f 11//24 12//18 15//17
f 11//24 19//25 18//23
f 72//26 19//25 16//27 74//28
f 13//29 11//24 17//20
f 11//24 20//21 17//20
f 13//29 12//18 11//24
f 14//30 11//24 15//17
f 16//27 19//25 11//24
f 14//30 16//27 11//24
f 48//31 27//32 24//33 46//34
f 34//5 29//35 32//36 33//6
f 30//37 32//36 23//38
f 23//38 24//33 27//32
f 23//38 31//39 30//37
f 87//40 31//39 28//41 88//42
f 25//43 23//38 29//35
f 23//38 32//36 29//35
f 25//43 24//33 23//38
f 26//44 23//38 27//32
f 28//41 31//39 23//38
f 26//44 28//41 23//38
f 48//31 46//34 36//45 39//46
f 47//19 45//22 44//47 41//48
f 42//49 35//50 44//47
f 35//50 39//46 36//45
f 35//50 42//49 43//51
f 102//52 104//53 40//54 43//51
f 37//55 41//48 35//50
f 35//50 41//48 44//47
f 37//55 35//50 36//45
f 38//56 39//46 35//50
f 40//54 35//50 43//51
f 38//56 35//50 40//54
f 73//57 53//58 50//59 71//60
f 86//61 55//62 58//63 85//64
f 56//65 58//63 49//66
f 49//66 50//59 53//58
f 49//66 57//67 56//65
f 59//12 57//67 54//68 60//13
f 51//69 49//66 55//62
f 49//66 58//63 55//62
f 51//69 50//59 49//66
f 52//70 49//66 53//58
f 54//68 57//67 49//66
f 52//70 54//68 49//66
f 73//57 71//60 62//71 65//72
f 101//73 99//74 70//75 67//76
f 68//77 61//78 70//75
f 61//78 65//72 62//71
f 61//78 68//77 69//79
f 72//26 74//28 66//80 69//79
f 63//81 67//76 61//78
f 61//78 67//76 70//75
f 63//81 61//78 62//71
f 64//82 65//72 61//78
f 66//80 61//78 69//79
f 64//82 61//78 66//80
f 103//83 100//84 76//85 79//86
f 86//61 85//64 84//87 81//88
f 82//89 75//90 84//87
f 75//90 79//86 76//85
f 75//90 82//89 83//91
f 87//40 88//42 80//92 83//91
f 77//93 81//88 75//90
f 75//90 81//88 84//87
f 77//93 75//90 76//85
f 78//94 79//86 75//90
f 80//92 75//90 83//91
f 78//94 75//90 80//92
f 103//83 93//95 90//96 100//84
f 101//73 95//97 98//98 99//74
f 96//99 98//98 89//100
f 89//100 90//96 93//95
f 89//100 97//101 96//99
f 102//52 97//101 94//102 104//53
f 91//103 89//100 95//97
f 89//100 98//98 95//97
f 91//103 90//96 89//100
f 92//104 89//100 93//95
f 94//102 97//101 89//100
f 92//104 94//102 89//100
f 358//105 357//105 361//105 364//105 365//105
f 354//105 371//105 367//105 368//105 355//105
f 338//105 337//105 341//105 354//105 364//105
f 353//105 363//105 364//105 354//105
f 352//105 362//105 363//105 353//105
f 360//105 370//105 371//105 361//105
f 365//105 366//105 358//105
f 355//105 368//105 356//105
f 258//105 310//105 358//105
f 368//105 282//105 284//105
f 282//105 368//105 281//105
f 369//105 283//105 281//105
f 368//105 369//105 281//105
f 308//105 360//105 307//105
f 307//105 359//105 305//105
f 359//105 358//105 305//105
f 306//105 358//105 310//105
f 258//105 366//105 257//105
f 257//105 362//105 259//105
f 362//105 260//105 259//105
f 260//105 352//105 239//105
f 352//105 237//105 239//105
f 237//105 356//105 238//105
f 284//105 238//105 368//105
f 358//105 306//105 305//105
f 369//105 370//105 283//105
f 308//105 283//105 360//105
f 307//105 360//105 359//105
f 238//105 356//105 368//105
f 366//105 258//105 358//105
f 257//105 366//105 362//105
f 362//105 352//105 260//105
f 352//105 356//105 237//105
f 283//105 370//105 360//105
f 340//105 371//105 354//105 341//105
f 340//105 339//105 361//105 371//105
f 338//105 364//105 361//105 339//105
f 372//106 382//106 383//106 384//106 374//106 373//106
f 378//106 377//106 381//106 384//106 385//106
f 374//106 391//106 387//106 388//106 375//106
f 374//106 384//106 381//106 391//106
f 380//106 390//106 391//106 381//106
f 385//106 386//106 378//106
f 375//106 388//106 376//106
f 382//106 250//106 234//106
f 250//106 372//106 243//106
f 372//106 242//106 243//106
f 242//106 376//106 244//106
f 235//106 285//106 378//106
f 388//106 290//106 298//106
f 290//106 388//106 288//106
f 389//106 289//106 288//106
f 390//106 297//106 289//106
f 297//106 380//106 278//106
f 278//106 379//106 277//106
f 379//106 378//106 277//106
f 279//106 378//106 285//106
f 394//107 393//107 397//107 401//107 400//107 395//107
f 235//106 386//106 233//106
f 233//106 382//106 234//106
f 382//106 372//106 250//106
f 372//106 376//106 242//106
f 298//106 244//106 388//106
f 378//106 279//106 277//106
f 389//106 390//106 289//106
f 390//106 380//106 297//106
f 278//106 380//106 379//106
f 244//106 376//106 388//106
f 386//106 235//106 378//106
f 233//106 386//106 382//106
f 388//106 389//106 288//106
f 397//107 393//107 271//107
f 248//107 397//107 271//107
f 334//108 333//108 347//108 351//108 335//108
f 270//107 392//107 268//107
f 268//107 396//107 269//107
f 269//107 396//107 324//107
f 248//107 246//107 397//107
f 319//107 395//107 318//107
f 318//107 400//107 320//107
f 320//107 400//107 321//107
f 400//107 294//107 321//107
f 294//107 399//107 292//107
f 292//107 398//107 293//107
f 293//107 398//107 296//107
f 296//107 397//107 247//107
f 247//107 397//107 246//107
f 271//107 393//107 392//107
f 270//107 271//107 392//107
f 268//107 392//107 396//107
f 395//107 319//107 396//107
f 318//107 395//107 400//107
f 400//107 399//107 294//107
f 292//107 399//107 398//107
f 296//107 398//107 397//107
f 319//107 324//107 396//107
f 332//108 336//108 345//108 344//108 343//108
f 253//108 346//108 255//108
f 255//108 345//108 311//108
f 311//108 336//108 303//108
f 303//108 335//108 301//108
f 301//108 335//108 302//108
f 335//108 325//108 302//108
f 325//108 350//108 315//108
f 315//108 349//108 314//108
f 314//108 348//108 316//108
f 316//108 348//108 326//108
f 347//108 333//108 326//108
f 266//108 333//108 264//108
f 264//108 332//108 265//108
f 332//108 274//108 265//108
f 343//108 254//108 274//108
f 254//108 342//108 253//108
f 253//108 342//108 346//108
f 255//108 346//108 345//108
f 311//108 345//108 336//108
f 303//108 336//108 335//108
f 335//108 351//108 325//108
f 325//108 351//108 350//108
f 315//108 350//108 349//108
f 314//108 349//108 348//108
f 326//108 348//108 347//108
f 232//109 331//109 236//109
f 264//108 333//108 332//108
f 332//108 343//108 274//108
f 343//108 342//108 254//108
f 333//108 266//108 326//108
f 236//109 331//109 261//109
f 331//109 256//109 261//109
f 256//109 330//109 252//109
f 252//109 330//109 251//109
f 251//109 330//109 272//109
f 272//109 329//109 262//109
f 262//109 329//109 263//109
f 263//109 329//109 267//109
f 267//109 328//109 273//109
f 273//109 328//109 245//109
f 328//109 327//109 245//109
f 241//109 327//109 240//109
f 240//109 327//109 249//109
f 249//109 327//109 231//109
f 327//109 241//109 245//109
f 331//109 330//109 256//109
f 272//109 330//109 329//109
f 267//109 329//109 328//109
f 408//110 407//110 411//110 429//110 430//110
f 232//109 231//109 331//109
f 231//109 327//109 331//109
f 415//110 431//110 427//110 428//110 414//110
f 405//110 404//110 423//110 422//110 426//110
f 418//110 425//110 424//110 421//110 417//110
f 410//110 420//110 421//110 411//110
f 429//110 411//110 421//110 424//110
f 423//110 428//110 429//110 424//110
f 428//110 423//110 404//110 414//110
f 403//110 413//110 414//110 404//110
f 402//110 412//110 413//110 403//110
f 287//110 402//110 406//110
f 418//110 419//110 313//110
f 313//110 317//110 418//110
f 418//110 317//110 425//110
f 317//110 323//110 426//110 425//110
f 323//110 291//110 405//110 426//110
f 405//110 291//110 406//110
f 287//110 406//110 291//110
f 287//110 286//110 402//110
f 295//110 402//110 286//110
f 402//110 295//110 412//110
f 295//110 275//110 412//110
f 276//110 416//110 412//110 275//110
f 280//110 416//110 276//110
f 416//110 280//110 415//110
f 309//110 431//110 415//110 280//110
f 304//110 430//110 431//110 309//110
f 430//110 304//110 408//110
f 304//110 300//110 409//110 408//110
f 300//110 299//110 410//110 409//110
f 322//110 410//110 299//110
f 410//110 322//110 420//110
f 322//110 312//110 420//110
f 313//110 419//110 420//110 312//110
usemtl Dots
f 109//111 105//112 110//109
f 107//113 108//114 110//109
f 105//112 106//115 110//109
f 108//114 109//111 110//109
f 106//115 107//113 110//109
f 115//116 111//117 116//108
f 113//118 114//119 116//108
f 111//117 112//120 116//108
f 114//119 115//116 116//108
f 112//120 113//118 116//108
f 121//121 117//122 122//105
f 119//123 120//124 122//105
f 117//122 118//125 122//105
f 120//124 121//121 122//105
f 118//125 119//123 122//105
f 127//116 123//117 128//108
f 125//118 126//119 128//108
f 123//117 124//120 128//108
f 126//119 127//116 128//108
f 124//120 125//118 128//108
f 133//116 129//117 134//108
f 131//118 132//119 134//108
f 129//117 130//120 134//108
f 132//119 133//116 134//108
f 130//120 131//118 134//108
f 139//121 135//122 140//105
f 137//123 138//124 140//105
f 135//122 136//125 140//105
f 138//124 139//121 140//105
f 136//125 137//123 140//105
f 145//121 141//122 146//105
f 143//123 144//124 146//105
f 141//122 142//125 146//105
f 144//124 145//121 146//105
f 142//125 143//123 146//105
f 151//125 152//105 147//122
f 149//124 152//105 150//123
f 147//122 152//105 148//121
f 150//123 152//105 151//125
f 148//121 152//105 149//124
f 157//125 158//105 153//122
f 155//124 158//105 156//123
f 153//122 158//105 154//121
f 156//123 158//105 157//125
f 154//121 158//105 155//124
f 163//126 159//127 164//106
f 161//128 162//129 164//106
f 159//127 160//130 164//106
f 162//129 163//126 164//106
f 160//130 161//128 164//106
f 169//126 165//127 170//106
f 167//128 168//129 170//106
f 165//127 166//130 170//106
f 168//129 169//126 170//106
f 166//130 167//128 170//106
f 175//130 176//106 171//127
f 173//129 176//106 174//128
f 171//127 176//106 172//126
f 174//128 176//106 175//130
f 172//126 176//106 173//129
f 181//130 182//106 177//127
f 179//129 182//106 180//128
f 177//127 182//106 178//126
f 180//128 182//106 181//130
f 178//126 182//106 179//129
f 187//131 183//132 188//107
f 185//133 186//134 188//107
f 183//132 184//135 188//107
f 186//134 187//131 188//107
f 184//135 185//133 188//107
f 193//131 189//132 194//107
f 191//133 192//134 194//107
f 189//132 190//135 194//107
f 192//134 193//131 194//107
f 190//135 191//133 194//107
f 199//136 195//137 200//110
f 197//138 198//139 200//110
f 195//137 196//140 200//110
f 198//139 199//136 200//110
f 196//140 197//138 200//110
f 205//136 201//137 206//110
f 203//138 204//139 206//110
f 201//137 202//140 206//110
f 204//139 205//136 206//110
f 202//140 203//138 206//110
f 211//140 212//110 207//137
f 209//139 212//110 210//138
f 207//137 212//110 208//136
f 210//138 212//110 211//140
f 208//136 212//110 209//139
f 217//140 218//110 213//137
f 215//139 218//110 216//138
f 213//137 218//110 214//136
f 216//138 218//110 217//140
f 214//136 218//110 215//139
f 223//136 219//137 224//110
f 221//138 222//139 224//110
f 219//137 220//140 224//110
f 222//139 223//136 224//110
f 220//140 221//138 224//110
f 229//140 230//110 225//137
f 227//139 230//110 228//138
f 225//137 230//110 226//136
f 228//138 230//110 229//140
f 226//136 230//110 227//139
