# Blender v2.79 (sub 0) OBJ File: ''
# www.blender.org
mtllib dice.mtl
v 0.500000 0.386046 -0.386046
v 0.386046 0.386046 -0.500000
v 0.386046 0.500000 -0.386046
v 0.500000 -0.386046 -0.386046
v 0.386046 -0.500000 -0.386046
v 0.386046 -0.386046 -0.500000
v -0.386046 -0.500000 -0.386046
v -0.500000 -0.386046 -0.386046
v -0.386046 -0.386046 -0.500000
v -0.386046 0.500000 -0.386046
v -0.386046 0.386046 -0.500000
v -0.500000 0.386046 -0.386046
v 0.386046 0.500000 0.386046
v 0.386046 0.386046 0.500000
v 0.500000 0.386046 0.386046
v 0.386045 -0.500000 0.386046
v 0.500000 -0.386046 0.386046
v 0.386046 -0.386046 0.500000
v -0.500000 -0.386046 0.386046
v -0.386046 -0.500000 0.386046
v -0.386046 -0.386046 0.500000
v -0.500000 0.386046 0.386046
v -0.386046 0.386046 0.500000
v -0.386046 0.500000 0.386046
v -0.000000 0.109190 0.501000
v 0.109190 -0.000000 0.501000
v -0.000000 -0.109190 0.501000
v -0.109190 -0.000000 0.501000
v -0.000000 -0.501000 0.109190
v 0.109190 -0.501000 -0.000000
v -0.000000 -0.501000 -0.109190
v -0.109190 -0.501000 -0.000000
v 0.501000 0.000000 0.109190
v 0.501000 0.109190 -0.000000
v 0.501000 -0.000000 -0.109190
v 0.501000 -0.109190 -0.000000
v 0.250000 -0.501000 0.359190
v 0.359190 -0.501000 0.250000
v 0.250000 -0.501000 0.140810
v 0.140810 -0.501000 0.250000
v -0.250000 -0.501000 -0.140810
v -0.140810 -0.501000 -0.250000
v -0.250000 -0.501000 -0.359190
v -0.359190 -0.501000 -0.250000
v 0.501000 0.250000 0.359190
v 0.501000 0.359190 0.250000
v 0.501000 0.250000 0.140810
v 0.501000 0.140810 0.250000
v 0.501000 -0.250000 -0.140810
v 0.501000 -0.140810 -0.250000
v 0.501000 -0.250000 -0.359190
v 0.501000 -0.359190 -0.250000
v 0.501000 -0.359190 0.250000
v 0.501000 -0.250000 0.359190
v 0.501000 -0.140810 0.250000
v 0.501000 -0.250000 0.140810
v 0.501000 0.140810 -0.250000
v 0.501000 0.250000 -0.140810
v 0.501000 0.359190 -0.250000
v 0.501000 0.250000 -0.359190
v -0.250000 0.501000 0.359190
v -0.359190 0.501000 0.250000
v -0.250000 0.501000 0.140810
v -0.140810 0.501000 0.250000
v 0.250000 0.501000 -0.140810
v 0.140810 0.501000 -0.250000
v 0.250000 0.501000 -0.359190
v 0.359190 0.501000 -0.250000
v 0.359190 0.501000 0.250000
v 0.250000 0.501000 0.359190
v 0.140810 0.501000 0.250000
v 0.250000 0.501000 0.140810
v -0.140810 0.501000 -0.250000
v -0.250000 0.501000 -0.140810
v -0.359190 0.501000 -0.250000
v -0.250000 0.501000 -0.359190
v -0.501000 -0.250000 0.359190
v -0.501000 -0.359190 0.250000
v -0.501000 -0.250000 0.140810
v -0.501000 -0.140810 0.250000
v -0.501000 0.250000 -0.140810
v -0.501000 0.140810 -0.250000
v -0.501000 0.250000 -0.359190
v -0.501000 0.359190 -0.250000
v -0.250000 0.359190 -0.501000
v -0.359190 0.250000 -0.501000
v -0.250000 0.140810 -0.501000
v -0.140810 0.250000 -0.501000
v 0.250000 -0.140810 -0.501000
v 0.140810 -0.250000 -0.501000
v 0.250000 -0.359190 -0.501000
v 0.359190 -0.250000 -0.501000
v 0.359190 0.250000 -0.501000
v 0.250000 0.359190 -0.501000
v 0.140810 0.250000 -0.501000
v 0.250000 0.140810 -0.501000
v -0.140810 -0.250000 -0.501000
v -0.250000 -0.140810 -0.501000
v -0.359190 -0.250000 -0.501000
v -0.250000 -0.359190 -0.501000
v -0.250000 0.109190 -0.501000
v -0.359190 -0.000000 -0.501000
v -0.250000 -0.109190 -0.501000
v -0.140810 -0.000000 -0.501000
v 0.359190 -0.000000 -0.501000
v 0.250000 0.109190 -0.501000
v 0.140810 -0.000000 -0.501000
v 0.250000 -0.109190 -0.501000
vn 1.0000 0.0000 0.0000
vn 0.0000 -0.0000 -1.0000
vn -0.0000 1.0000 -0.0000
vn 0.0000 -1.0000 0.0000
vn -1.0000 -0.0000 0.0000
vn -0.0000 0.0000 1.0000
vn 0.0000 -0.5748 0.8183
vn 0.5748 0.0000 0.8183
vn -0.0000 0.5748 0.8183
vn -0.5748 0.0000 0.8183
vn 0.0000 -0.8183 -0.5748
vn 0.5748 -0.8183 0.0000
vn -0.0000 -0.8183 0.5748
vn -0.5748 -0.8183 0.0000
vn 0.8183 0.0000 -0.5748
vn 0.8183 0.5748 0.0000
vn 0.8183 -0.0000 0.5748
vn 0.8183 -0.5748 0.0000
vn -0.0000 0.8183 -0.5748
vn -0.5748 0.8183 0.0000
vn 0.0000 0.8183 0.5748
vn 0.5748 0.8183 0.0000
vn -0.8183 -0.0000 -0.5748
vn -0.8183 -0.5748 0.0000
vn -0.8183 0.0000 0.5748
vn -0.8183 0.5748 0.0000
vn -0.0000 -0.5748 -0.8183
vn -0.5748 0.0000 -0.8183
vn 0.0000 0.5748 -0.8183
vn 0.5748 0.0000 -0.8183
usemtl Ivory
s 1
f 1//1 2//2 3//3
f 4//1 5//4 6//2
f 7//4 8//5 9//2
f 10//3 11//2 12//5
f 13//3 14//6 15//1
f 16//4 17//1 18//6
f 19//5 20//4 21//6
f 22//5 23//6 24//3
f 1//1 4//1 6//2 2//2
f 2//2 11//2 10//3 3//3
f 3//3 13//3 15//1 1//1
f 5//4 7//4 9//2 6//2
f 4//1 17//1 16//4 5//4
f 8//5 12//5 11//2 9//2
f 7//4 20//4 19//5 8//5
f 12//5 22//5 24//3 10//3
f 14//6 18//6 17//1 15//1
f 13//3 24//3 23//6 14//6
f 18//6 21//6 20//4 16//4
f 21//6 23//6 22//5 19//5
f 10//3 24//3 13//3 3//3
f 14//6 23//6 21//6 18//6
f 8//5 19//5 22//5 12//5
f 5//4 16//4 20//4 7//4
f 1//1 15//1 17//1 4//1
f 6//2 9//2 11//2 2//2
usemtl Dots
f 25//7 28//8 27//9 26//10
f 29//11 32//12 31//13 30//14
f 33//15 36//16 35//17 34//18
f 37//11 40//12 39//13 38//14
f 41//11 44//12 43//13 42//14
f 45//15 48//16 47//17 46//18
f 49//15 52//16 51//17 50//18
f 53//16 56//17 55//18 54//15
f 57//16 60//17 59//18 58//15
f 61//19 64//20 63//21 62//22
f 65//19 68//20 67//21 66//22
f 69//20 72//21 71//22 70//19
f 73//20 76//21 75//22 74//19
f 77//23 80//24 79//25 78//26
f 81//23 84//24 83//25 82//26
f 85//27 88//28 87//29 86//30
f 89//27 92//28 91//29 90//30
f 93//28 96//29 95//30 94//27
f 97//28 100//29 99//30 98//27
f 101//27 104//28 103//29 102//30
f 105//28 108//29 107//30 106//27
