# Blender v2.79 (sub 0) OBJ File: ''
# www.blender.org
mtllib dice.mtl
v 0.353553 0.353554 0.500000
v 0.500000 -0.353553 0.353553
v -0.353553 -0.500000 0.353554
v 0.000000 -0.495018 0.495018
v 0.500000 0.353553 -0.353553
v 0.495018 0.495018 0.000000
v -0.353553 0.353554 -0.500000
v 0.495018 -0.495018 0.000000
v -0.500000 -0.353553 -0.353553
v -0.495018 -0.495018 0.000000
v -0.000000 0.114650 0.501000
v 0.114650 -0.000000 0.501000
v -0.000000 -0.114650 0.501000
v -0.114650 -0.000000 0.501000
v -0.000000 -0.501000 0.114650
v 0.114650 -0.501000 -0.000000
v -0.000000 -0.501000 -0.114650
v -0.114650 -0.501000 -0.000000
v 0.501000 0.000000 0.114650
v 0.501000 0.114650 -0.000000
v 0.501000 -0.000000 -0.114650
v 0.501000 -0.114650 -0.000000
v 0.218750 -0.501000 0.333400
v 0.333400 -0.501000 0.218750
v 0.218750 -0.501000 0.104100
v 0.104100 -0.501000 0.218750
v -0.218750 -0.501000 -0.104100
v -0.104100 -0.501000 -0.218750
v -0.218750 -0.501000 -0.333400
v -0.333400 -0.501000 -0.218750
v 0.501000 0.218750 0.333400
v 0.501000 0.333400 0.218750
v 0.501000 0.218750 0.104100
v 0.501000 0.104100 0.218750
v 0.501000 -0.218750 -0.104100
v 0.501000 -0.104100 -0.218750
v 0.501000 -0.218750 -0.333400
v 0.501000 -0.333400 -0.218750
v 0.501000 -0.333400 0.218750
v 0.501000 -0.218750 0.333400
v 0.501000 -0.104100 0.218750
v 0.501000 -0.218750 0.104100
v 0.501000 0.104100 -0.218750
v 0.501000 0.218750 -0.104100
v 0.501000 0.333400 -0.218750
v 0.501000 0.218750 -0.333400
v -0.218750 0.501000 0.333400
v -0.333400 0.501000 0.218750
v -0.218750 0.501000 0.104100
v -0.104100 0.501000 0.218750
v 0.218750 0.501000 -0.104100
v 0.104100 0.501000 -0.218750
v 0.218750 0.501000 -0.333400
v 0.333400 0.501000 -0.218750
v 0.333400 0.501000 0.218750
v 0.218750 0.501000 0.333400
v 0.104100 0.501000 0.218750
v 0.218750 0.501000 0.104100
v -0.104100 0.501000 -0.218750
v -0.218750 0.501000 -0.104100
v -0.333400 0.501000 -0.218750
v -0.218750 0.501000 -0.333400
v -0.501000 -0.218750 0.333400
v -0.501000 -0.333400 0.218750
v -0.501000 -0.218750 0.104100
v -0.501000 -0.104100 0.218750
v -0.501000 0.218750 -0.104100
v -0.501000 0.104100 -0.218750
v -0.501000 0.218750 -0.333400
v -0.501000 0.333400 -0.218750
v -0.218750 0.327667 -0.501000
v -0.333400 0.218750 -0.501000
v -0.218750 0.109833 -0.501000
v -0.104100 0.218750 -0.501000
v 0.218750 -0.109833 -0.501000
v 0.104100 -0.218750 -0.501000
v 0.218750 -0.327667 -0.501000
v 0.333400 -0.218750 -0.501000
v 0.333400 0.218750 -0.501000
v 0.218750 0.327667 -0.501000
v 0.104100 0.218750 -0.501000
v 0.218750 0.109833 -0.501000
v -0.104100 -0.218750 -0.501000
v -0.218750 -0.109833 -0.501000
v -0.333400 -0.218750 -0.501000
v -0.218750 -0.327667 -0.501000
v -0.218750 0.108917 -0.501000
v -0.333400 -0.000000 -0.501000
v -0.218750 -0.108917 -0.501000
v -0.104100 -0.000000 -0.501000
v 0.333400 -0.000000 -0.501000
v 0.218750 0.108917 -0.501000
v 0.104100 -0.000000 -0.501000
v 0.218750 -0.108917 -0.501000
v 0.353553 0.500000 0.353554
v 0.500000 0.353553 0.353553
v -0.353553 0.500000 0.353554
v -0.353553 0.353554 0.500000
v -0.500000 0.353553 0.353553
v 0.000000 0.495018 0.495018
v 0.353553 -0.500000 0.353554
v 0.353553 -0.353554 0.500000
v 0.495018 0.000000 0.495018
v -0.353553 -0.353554 0.500000
v -0.500000 -0.353553 0.353553
v -0.495018 0.000000 0.495018
v 0.353553 0.500000 -0.353554
v 0.353553 0.353554 -0.500000
v -0.353553 0.500000 -0.353554
v -0.500000 0.353553 -0.353553
v 0.000000 0.495018 -0.495018
v -0.495018 0.495018 0.000000
v 0.353553 -0.500000 -0.353554
v 0.353553 -0.353554 -0.500000
v 0.500000 -0.353553 -0.353553
v 0.495018 0.000000 -0.495018
v -0.353553 -0.500000 -0.353554
v -0.353553 -0.353554 -0.500000
v 0.000000 -0.495018 -0.495018
v -0.495018 0.000000 -0.495018
v 0.495018 -0.495018 0.000000
v 0.495018 -0.495018 0.000000
v 0.495018 -0.495018 0.000000
v 0.500000 -0.353553 0.353553
v 0.000000 -0.495018 0.495018
v 0.000000 -0.495018 0.495018
v 0.000000 -0.495018 0.495018
v -0.353553 -0.500000 0.353554
v 0.495018 0.495018 0.000000
v 0.495018 0.495018 0.000000
v 0.495018 0.495018 0.000000
v 0.500000 0.353553 -0.353553
v -0.495018 -0.495018 0.000000
v -0.495018 -0.495018 0.000000
v -0.495018 -0.495018 0.000000
v -0.500000 -0.353553 -0.353553
v 0.000000 0.495018 0.495018
v 0.000000 0.495018 0.495018
v 0.000000 0.495018 0.495018
v 0.353553 0.500000 0.353554
v -0.495018 0.495018 0.000000
v -0.495018 0.495018 0.000000
v -0.495018 0.495018 0.000000
v -0.500000 0.353553 0.353553
v -0.353553 0.500000 0.353554
v -0.495018 0.000000 0.495018
v -0.495018 0.000000 0.495018
v -0.495018 0.000000 0.495018
v -0.353553 0.353554 0.500000
v 0.495018 0.000000 0.495018
v 0.495018 0.000000 0.495018
v 0.495018 0.000000 0.495018
v 0.353553 -0.353554 0.500000
v -0.353553 -0.353554 0.500000
v 0.000000 0.495018 -0.495018
v 0.000000 0.495018 -0.495018
v 0.000000 0.495018 -0.495018
v 0.353553 0.500000 -0.353554
v 0.495018 0.000000 -0.495018
v 0.495018 0.000000 -0.495018
v 0.495018 0.000000 -0.495018
v 0.353553 0.353554 -0.500000
v -0.500000 0.353553 -0.353553
v -0.353553 0.500000 -0.353554
v 0.000000 -0.495018 -0.495018
v 0.000000 -0.495018 -0.495018
v 0.000000 -0.495018 -0.495018
v 0.353553 -0.500000 -0.353554
v 0.353553 -0.353554 -0.500000
v -0.353553 -0.500000 -0.353554
v -0.495018 0.000000 -0.495018
v -0.495018 0.000000 -0.495018
v -0.495018 0.000000 -0.495018
v -0.353553 -0.353554 -0.500000
v 0.500000 0.353553 0.353553
v 0.353553 0.353554 0.500000
v 0.353553 -0.500000 0.353554
v -0.500000 -0.353553 0.353553
v -0.353553 0.353554 -0.500000
v 0.500000 -0.353553 -0.353553
vn -0.0142 0.6955 0.7184
vn 0.5077 0.4948 0.7053
vn 0.4839 0.7166 0.5023
vn 0.7042 0.0000 0.7100
vn 0.7127 0.4937 0.4983
vn 0.7044 0.7098 0.0001
vn -0.5020 0.7003 0.5075
vn -0.5051 0.4841 0.7145
vn -0.7051 -0.0204 0.7088
vn -0.7015 0.5096 0.4982
vn -0.7044 0.7098 -0.0001
vn -0.0142 -0.6955 0.7184
vn 0.4839 -0.7166 0.5023
vn 0.5077 -0.4948 0.7053
vn 0.7127 -0.4937 0.4983
vn 0.7044 -0.7098 0.0001
vn -0.5051 -0.4841 0.7145
vn -0.5020 -0.7003 0.5075
vn -0.7051 -0.0205 0.7088
vn -0.7015 -0.5096 0.4982
vn -0.7044 -0.7098 -0.0001
vn 0.0142 0.6955 -0.7184
vn 0.5020 0.7003 -0.5075
vn 0.5051 0.4841 -0.7145
vn 0.7051 0.0205 -0.7088
vn 0.7015 0.5096 -0.4982
vn -0.5077 0.4948 -0.7053
vn -0.4839 0.7166 -0.5023
vn -0.7042 0.0000 -0.7100
vn -0.7127 0.4937 -0.4983
vn 0.0142 -0.6955 -0.7184
vn 0.5051 -0.4841 -0.7145
vn 0.5020 -0.7003 -0.5075
vn 0.7051 0.0204 -0.7088
vn 0.7015 -0.5096 -0.4982
vn -0.4839 -0.7166 -0.5023
vn -0.5077 -0.4948 -0.7053
vn -0.7127 -0.4937 -0.4983
vn 1.0000 0.0000 0.0000
vn -1.0000 -0.0000 0.0000
vn 0.0000 -0.0000 -1.0000
vn 0.0000 1.0000 0.0000
vn 0.0000 -1.0000 -0.0000
vn 0.0000 0.0000 1.0000
vn 0.0000 -0.5748 0.8183
vn 0.5748 0.0000 0.8183
vn -0.0000 0.5748 0.8183
vn -0.5748 0.0000 0.8183
vn 0.0000 -0.8183 -0.5748
vn 0.5748 -0.8183 0.0000
vn -0.0000 -0.8183 0.5748
vn -0.5748 -0.8183 0.0000
vn 0.8183 0.0000 -0.5748
vn 0.8183 0.5748 0.0000
vn 0.8183 -0.0000 0.5748
vn 0.8183 -0.5748 0.0000
vn -0.0000 0.8183 -0.5748
vn -0.5748 0.8183 0.0000
vn 0.0000 0.8183 0.5748
vn 0.5748 0.8183 0.0000
vn -0.8183 -0.0000 -0.5748
vn -0.8183 -0.5748 0.0000
vn -0.8183 0.0000 0.5748
vn -0.8183 0.5748 0.0000
vn -0.0000 -0.5748 -0.8183
vn -0.5748 0.0000 -0.8183
vn 0.0000 0.5748 -0.8183
vn 0.5748 0.0000 -0.8183
usemtl Ivory
s 1
f 137//1 176//2 140//3
f 151//4 175//5 176//2
f 130//6 140//3 175//5
f 140//3 176//2 175//5
f 138//1 145//7 149//8
f 146//9 149//8 144//10
f 141//11 144//10 145//7
f 145//7 144//10 149//8
f 126//12 177//13 153//14
f 150//4 153//14 124//15
f 121//16 124//15 177//13
f 177//13 124//15 153//14
f 125//12 154//17 128//18
f 147//19 178//20 154//17
f 134//21 128//18 178//20
f 128//18 154//17 178//20
f 155//22 158//23 162//24
f 159//25 162//24 132//26
f 129//6 132//26 158//23
f 158//23 132//26 162//24
f 156//22 179//27 164//28
f 172//29 163//30 179//27
f 142//11 164//28 163//30
f 164//28 179//27 163//30
f 165//31 169//32 168//33
f 160//34 180//35 169//32
f 122//16 168//33 180//35
f 168//33 169//32 180//35
f 166//31 170//36 174//37
f 171//29 174//37 136//38
f 133//21 136//38 170//36
f 170//36 136//38 174//37
f 131//39 96//39 152//39 2//39 123//39 115//39 161//39 5//39
f 99//40 143//40 110//40 173//40 9//40 10//40 105//40 148//40
f 108//41 116//41 114//41 119//41 118//41 120//41 7//41 111//41
f 139//42 95//42 6//42 107//42 157//42 109//42 112//42 97//42
f 101//43 127//43 3//43 135//43 117//43 167//43 113//43 8//43
f 103//44 1//44 100//44 98//44 106//44 104//44 4//44 102//44
usemtl Dots
f 11//45 14//46 13//47 12//48
f 15//49 18//50 17//51 16//52
f 19//53 22//54 21//55 20//56
f 23//49 26//50 25//51 24//52
f 27//49 30//50 29//51 28//52
f 31//53 34//54 33//55 32//56
f 35//53 38//54 37//55 36//56
f 39//54 42//55 41//56 40//53
f 43//54 46//55 45//56 44//53
f 47//57 50//58 49//59 48//60
f 51//57 54//58 53//59 52//60
f 55//58 58//59 57//60 56//57
f 59//58 62//59 61//60 60//57
f 63//61 66//62 65//63 64//64
f 67//61 70//62 69//63 68//64
f 71//65 74//66 73//67 72//68
f 75//65 78//66 77//67 76//68
f 79//66 82//67 81//68 80//65
f 83//66 86//67 85//68 84//65
f 87//65 90//66 89//67 88//68
f 91//66 94//67 93//68 92//65
