# Blender v2.79 (sub 0) OBJ File: ''
# www.blender.org
mtllib dice.mtl
v 0.000000 0.100000 0.500000
v -0.095106 0.030902 0.500000
v -0.058779 -0.080902 0.500000
v 0.058779 -0.080902 0.500000
v 0.095106 0.030902 0.500000
v 0.000000 -0.000000 0.450000
v 0.000000 -0.500000 0.100000
v -0.095106 -0.500000 0.030902
v -0.058779 -0.500000 -0.080902
v 0.058779 -0.500000 -0.080902
v 0.095106 -0.500000 0.030902
v 0.000000 -0.450000 -0.000000
v 0.500000 0.000000 0.100000
v 0.500000 -0.095106 0.030902
v 0.500000 -0.058778 -0.080902
v 0.500000 0.058779 -0.080902
v 0.500000 0.095106 0.030902
v 0.450000 0.000000 -0.000000
v 0.250000 -0.500000 0.350000
v 0.154894 -0.500000 0.280902
v 0.191221 -0.500000 0.169098
v 0.308779 -0.500000 0.169098
v 0.345106 -0.500000 0.280902
v 0.250000 -0.450000 0.250000
v -0.250000 -0.500000 -0.150000
v -0.345106 -0.500000 -0.219098
v -0.308779 -0.500000 -0.330902
v -0.191221 -0.500000 -0.330902
v -0.154894 -0.500000 -0.219098
v -0.250000 -0.450000 -0.250000
v 0.500000 0.250000 0.350000
v 0.500000 0.154894 0.280902
v 0.500000 0.191221 0.169098
v 0.500000 0.308779 0.169098
v 0.500000 0.345106 0.280902
v 0.450000 0.250000 0.250000
v 0.500000 -0.250000 -0.150000
v 0.500000 -0.345106 -0.219098
v 0.500000 -0.308778 -0.330902
v 0.500000 -0.191221 -0.330902
v 0.500000 -0.154894 -0.219098
v 0.450000 -0.250000 -0.250000
v 0.500000 -0.250000 0.350000
v 0.500000 -0.154894 0.280902
v 0.500000 -0.191221 0.169098
v 0.500000 -0.308779 0.169098
v 0.500000 -0.345106 0.280902
v 0.450000 -0.250000 0.250000
v 0.500000 0.250000 -0.150000
v 0.500000 0.345106 -0.219098
v 0.500000 0.308778 -0.330902
v 0.500000 0.191221 -0.330902
v 0.500000 0.154894 -0.219098
v 0.450000 0.250000 -0.250000
v -0.250000 0.500000 0.350000
v -0.154894 0.500000 0.280901
v -0.191221 0.500000 0.169098
v -0.308779 0.500000 0.169098
v -0.345106 0.500000 0.280901
v -0.250000 0.450000 0.250000
v 0.250000 0.500000 -0.150000
v 0.345106 0.500000 -0.219098
v 0.308778 0.500000 -0.330902
v 0.191221 0.500000 -0.330902
v 0.154894 0.500000 -0.219098
v 0.250000 0.450000 -0.250000
v 0.250000 0.500000 0.350000
v 0.154894 0.500000 0.280901
v 0.191221 0.500000 0.169098
v 0.308778 0.500000 0.169098
v 0.345106 0.500000 0.280901
v 0.250000 0.450000 0.250000
v -0.250000 0.500000 -0.150000
v -0.345106 0.500000 -0.219098
v -0.308779 0.500000 -0.330902
v -0.191221 0.500000 -0.330902
v -0.154894 0.500000 -0.219098
v -0.250000 0.450000 -0.250000
v -0.500000 -0.250000 0.350000
v -0.500000 -0.154894 0.280902
v -0.500000 -0.191221 0.169098
v -0.500000 -0.308778 0.169098
v -0.500000 -0.345106 0.280902
v -0.450000 -0.250000 0.250000
v -0.500000 0.250000 -0.150000
v -0.500000 0.345106 -0.219098
v -0.500000 0.308779 -0.330902
v -0.500000 0.191221 -0.330902
v -0.500000 0.154894 -0.219098
v -0.450000 0.250000 -0.250000
v -0.250000 0.350000 -0.500000
v -0.154894 0.280901 -0.500000
v -0.191221 0.169098 -0.500000
v -0.308778 0.169098 -0.500000
v -0.345106 0.280901 -0.500000
v -0.250000 0.250000 -0.450000
v 0.250000 -0.150000 -0.500000
v 0.345106 -0.219098 -0.500000
v 0.308778 -0.330902 -0.500000
v 0.191221 -0.330902 -0.500000
v 0.154894 -0.219098 -0.500000
v 0.250000 -0.250000 -0.450000
v 0.250000 0.350000 -0.500000
v 0.154894 0.280901 -0.500000
v 0.191221 0.169098 -0.500000
v 0.308778 0.169098 -0.500000
v 0.345106 0.280901 -0.500000
v 0.250000 0.250000 -0.450000
v -0.250000 -0.150000 -0.500000
v -0.345106 -0.219098 -0.500000
v -0.308778 -0.330902 -0.500000
v -0.191221 -0.330902 -0.500000
v -0.154894 -0.219098 -0.500000
v -0.250000 -0.250000 -0.450000
v -0.250000 0.100000 -0.500000
v -0.154894 0.030901 -0.500000
v -0.191221 -0.080902 -0.500000
v -0.308778 -0.080902 -0.500000
v -0.345106 0.030901 -0.500000
v -0.250000 -0.000000 -0.450000
v 0.250000 0.100000 -0.500000
v 0.154894 0.030901 -0.500000
v 0.191221 -0.080902 -0.500000
v 0.308778 -0.080902 -0.500000
v 0.345106 0.030901 -0.500000
v 0.250000 -0.000000 -0.450000
v 0.500000 0.386046 -0.386046
v 0.386046 0.386046 -0.500000
v 0.386046 0.500000 -0.386046
v 0.500000 -0.386046 -0.386046
v 0.386046 -0.500000 -0.386046
v 0.386046 -0.386046 -0.500000
v -0.386046 -0.500000 -0.386046
v -0.500000 -0.386046 -0.386046
v -0.386046 -0.386046 -0.500000
v -0.386046 0.500000 -0.386046
v -0.386046 0.386046 -0.500000
v -0.500000 0.386046 -0.386046
v 0.386046 0.500000 0.386046
v 0.386046 0.386046 0.500000
v 0.500000 0.386046 0.386046
v 0.386045 -0.500000 0.386046
v 0.500000 -0.386046 0.386046
v 0.386046 -0.386046 0.500000
v -0.500000 -0.386046 0.386046
v -0.386046 -0.500000 0.386046
v -0.386046 -0.386046 0.500000
v -0.500000 0.386046 0.386046
v -0.386046 0.386046 0.500000
v -0.386046 0.500000 0.386046
v 0.000000 0.100000 0.500000
v -0.095106 0.030902 0.500000
v -0.058779 -0.080902 0.500000
v 0.058779 -0.080902 0.500000
v 0.095106 0.030902 0.500000
v 0.000000 -0.500000 0.100000
v -0.095106 -0.500000 0.030902
v -0.058779 -0.500000 -0.080902
v 0.058779 -0.500000 -0.080902
v 0.095106 -0.500000 0.030902
v 0.500000 0.000000 0.100000
v 0.500000 -0.095106 0.030902
v 0.500000 -0.058778 -0.080902
v 0.500000 0.058779 -0.080902
v 0.500000 0.095106 0.030902
v 0.250000 -0.500000 0.350000
v 0.154894 -0.500000 0.280902
v 0.191221 -0.500000 0.169098
v 0.308779 -0.500000 0.169098
v 0.345106 -0.500000 0.280902
v -0.250000 -0.500000 -0.150000
v -0.345106 -0.500000 -0.219098
v -0.308779 -0.500000 -0.330902
v -0.191221 -0.500000 -0.330902
v -0.154894 -0.500000 -0.219098
v 0.500000 0.250000 0.350000
v 0.500000 0.154894 0.280902
v 0.500000 0.191221 0.169098
v 0.500000 0.308779 0.169098
v 0.500000 0.345106 0.280902
v 0.500000 -0.250000 -0.150000
v 0.500000 -0.345106 -0.219098
v 0.500000 -0.308778 -0.330902
v 0.500000 -0.191221 -0.330902
v 0.500000 -0.154894 -0.219098
v 0.500000 -0.250000 0.350000
v 0.500000 -0.154894 0.280902
v 0.500000 -0.191221 0.169098
v 0.500000 -0.308779 0.169098
v 0.500000 -0.345106 0.280902
v 0.500000 0.250000 -0.150000
v 0.500000 0.345106 -0.219098
v 0.500000 0.308778 -0.330902
v 0.500000 0.191221 -0.330902
v 0.500000 0.154894 -0.219098
v -0.250000 0.500000 0.350000
v -0.154894 0.500000 0.280901
v -0.191221 0.500000 0.169098
v -0.308779 0.500000 0.169098
v -0.345106 0.500000 0.280901
v 0.250000 0.500000 -0.150000
v 0.345106 0.500000 -0.219098
v 0.308778 0.500000 -0.330902
v 0.191221 0.500000 -0.330902
v 0.154894 0.500000 -0.219098
v 0.250000 0.500000 0.350000
v 0.154894 0.500000 0.280901
v 0.191221 0.500000 0.169098
v 0.308778 0.500000 0.169098
v 0.345106 0.500000 0.280901
v -0.250000 0.500000 -0.150000
v -0.345106 0.500000 -0.219098
v -0.308779 0.500000 -0.330902
v -0.191221 0.500000 -0.330902
v -0.154894 0.500000 -0.219098
v -0.500000 -0.250000 0.350000
v -0.500000 -0.154894 0.280902
v -0.500000 -0.191221 0.169098
v -0.500000 -0.308778 0.169098
v -0.500000 -0.345106 0.280902
v -0.500000 0.250000 -0.150000
v -0.500000 0.345106 -0.219098
v -0.500000 0.308779 -0.330902
v -0.500000 0.191221 -0.330902
v -0.500000 0.154894 -0.219098
v -0.250000 0.350000 -0.500000
v -0.154894 0.280901 -0.500000
v -0.191221 0.169098 -0.500000
v -0.308778 0.169098 -0.500000
v -0.345106 0.280901 -0.500000
v 0.250000 -0.150000 -0.500000
v 0.345106 -0.219098 -0.500000
v 0.308778 -0.330902 -0.500000
v 0.191221 -0.330902 -0.500000
v 0.154894 -0.219098 -0.500000
v 0.250000 0.350000 -0.500000
v 0.154894 0.280901 -0.500000
v 0.191221 0.169098 -0.500000
v 0.308778 0.169098 -0.500000
v 0.345106 0.280901 -0.500000
v -0.250000 -0.150000 -0.500000
v -0.345106 -0.219098 -0.500000
v -0.308778 -0.330902 -0.500000
v -0.191221 -0.330902 -0.500000
v -0.154894 -0.219098 -0.500000
v -0.250000 0.100000 -0.500000
v -0.154894 0.030901 -0.500000
v -0.191221 -0.080902 -0.500000
v -0.308778 -0.080902 -0.500000
v -0.345106 0.030901 -0.500000
v 0.250000 0.100000 -0.500000
v 0.154894 0.030901 -0.500000
v 0.191221 -0.080902 -0.500000
v 0.308778 -0.080902 -0.500000
v 0.345106 0.030901 -0.500000
vn 1.0000 0.0000 -0.0000
vn -0.0000 -0.0000 -1.0000
vn -0.0000 1.0000 0.0000
vn 0.0000 -1.0000 0.0000
vn -1.0000 0.0000 0.0000
vn 0.0000 0.0000 1.0000
vn -0.4786 -0.0940 0.8730
vn -0.0585 -0.4842 0.8730
vn 0.3986 0.3583 0.8442
vn -0.2318 0.4421 0.8665
vn 0.4639 -0.2684 0.8442
vn -0.4786 -0.8730 -0.0940
vn -0.0585 -0.8730 -0.4842
vn 0.3986 -0.8442 0.3583
vn -0.2318 -0.8665 0.4421
vn 0.4639 -0.8442 -0.2684
vn 0.8730 -0.4786 -0.0940
vn 0.8730 -0.0585 -0.4842
vn 0.8442 0.3986 0.3583
vn 0.8665 -0.2318 0.4421
vn 0.8442 0.4639 -0.2684
vn 0.8730 0.4424 -0.2053
vn 0.8442 -0.2175 0.4898
vn 0.8665 0.3489 0.3571
vn 0.8442 -0.5331 -0.0555
vn 0.4786 0.8730 -0.0940
vn 0.0585 0.8730 -0.4842
vn -0.3986 0.8442 0.3583
vn 0.2318 0.8665 0.4421
vn -0.4639 0.8442 -0.2684
vn -0.4424 0.8730 -0.2053
vn 0.2175 0.8442 0.4898
vn -0.3489 0.8665 0.3571
vn 0.5331 0.8442 -0.0555
vn -0.8730 0.4786 -0.0940
vn -0.8730 0.0585 -0.4842
vn -0.8442 -0.3986 0.3583
vn -0.8665 0.2318 0.4421
vn -0.8442 -0.4639 -0.2684
vn 0.4786 -0.0940 -0.8730
vn 0.0585 -0.4842 -0.8730
vn -0.3986 0.3583 -0.8442
vn 0.2318 0.4421 -0.8665
vn -0.4639 -0.2684 -0.8442
vn -0.4424 -0.2053 -0.8730
vn 0.2175 0.4898 -0.8442
vn -0.3489 0.3571 -0.8665
vn 0.5331 -0.0555 -0.8442
usemtl Ivory
s 1
f 127//1 128//2 129//3
f 130//1 131//4 132//2
f 133//4 134//5 135//2
f 136//3 137//2 138//5
f 139//3 140//6 141//1
f 142//4 143//1 144//6
f 145//5 146//4 147//6
f 148//5 149//6 150//3
f 127//1 130//1 132//2 128//2
f 128//2 137//2 136//3 129//3
f 129//3 139//3 141//1 127//1
f 131//4 133//4 135//2 132//2
f 130//1 143//1 142//4 131//4
f 134//5 138//5 137//2 135//2
f 133//4 146//4 145//5 134//5
f 138//5 148//5 150//3 136//3
f 140//6 144//6 143//1 141//1
f 139//3 150//3 149//6 140//6
f 144//6 147//6 146//4 142//4
f 147//6 149//6 148//5 145//5
f 154//6 153//6 147//6 144//6 140//6 155//6
f 147//6 153//6 152//6 151//6 155//6 140//6 149//6
f 158//4 157//4 171//4 175//4
f 156//4 160//4 168//4 167//4
f 163//1 162//1 181//1 185//1
f 189//1 181//1 162//1 188//1
f 161//1 187//1 188//1 162//1
f 181//1 189//1 190//1 182//1
f 201//3 209//3 210//3 202//3
f 177//1 187//1 161//1 178//1
f 161//1 165//1 179//1 178//1
f 164//1 195//1 191//1 165//1
f 164//1 163//1 185//1 195//1
f 179//1 165//1 191//1
f 184//1 194//1 195//1 185//1
f 179//1 191//1 192//1 180//1
f 176//1 186//1 187//1 177//1
f 199//3 211//3 212//3 200//3
f 204//3 214//3 215//3 205//3
f 205//3 215//3 211//3 201//3
f 197//3 207//3 208//3 198//3
f 219//5 218//5 225//5 224//5
f 196//3 206//3 207//3 197//3
f 199//3 198//3 211//3
f 218//5 217//5 221//5 225//5
f 208//3 209//3 201//3
f 201//3 211//3 198//3 208//3
f 241//2 242//2 249//2 248//2
f 229//2 228//2 246//2 250//2
f 239//2 255//2 251//2 238//2
f 231//2 253//2 254//2 232//2
f 234//2 244//2 245//2 235//2
f 235//2 245//2 241//2 231//2
f 248//2 253//2 231//2 241//2
f 247//2 252//2 253//2 248//2
f 246//2 251//2 252//2 247//2
f 246//2 228//2 238//2 251//2
f 227//2 237//2 238//2 228//2
f 226//2 236//2 237//2 227//2
f 230//2 137//2 226//2
f 137//2 236//2 226//2
f 236//2 128//2 240//2
f 128//2 255//2 240//2
f 250//2 249//2 242//2
f 132//2 232//2 255//2
f 255//2 239//2 240//2
f 232//2 132//2 233//2
f 233//2 132//2 234//2
f 244//2 135//2 243//2
f 243//2 135//2 242//2
f 135//2 250//2 242//2
f 230//2 229//2 250//2
f 137//2 230//2 250//2
f 137//2 128//2 236//2
f 255//2 128//2 132//2
f 244//2 234//2 135//2
f 135//2 137//2 250//2
f 234//2 132//2 135//2
f 232//2 254//2 255//2
f 150//3 206//3 196//3
f 206//3 139//3 210//3
f 210//3 139//3 202//3
f 202//3 129//3 203//3
f 203//3 129//3 204//3
f 204//3 136//3 214//3
f 214//3 136//3 213//3
f 213//3 136//3 212//3
f 212//3 150//3 200//3
f 200//3 150//3 196//3
f 150//3 139//3 206//3
f 202//3 139//3 129//3
f 204//3 129//3 136//3
f 212//3 136//3 150//3
f 141//1 186//1 176//1
f 186//1 143//1 190//1
f 190//1 143//1 182//1
f 182//1 130//1 183//1
f 183//1 130//1 184//1
f 184//1 127//1 194//1
f 194//1 127//1 193//1
f 193//1 127//1 192//1
f 192//1 141//1 180//1
f 180//1 141//1 176//1
f 141//1 143//1 186//1
f 182//1 143//1 130//1
f 184//1 130//1 127//1
f 192//1 127//1 141//1
f 157//4 146//4 171//4
f 146//4 172//4 171//4
f 172//4 133//4 173//4
f 173//4 133//4 174//4
f 133//4 131//4 174//4
f 175//4 131//4 158//4
f 158//4 131//4 159//4
f 159//4 131//4 160//4
f 160//4 131//4 168//4
f 131//4 169//4 168//4
f 169//4 131//4 170//4
f 170//4 142//4 166//4
f 142//4 146//4 166//4
f 167//4 146//4 156//4
f 156//4 146//4 157//4
f 146//4 133//4 172//4
f 146//4 167//4 166//4
f 217//5 148//5 221//5
f 131//4 142//4 170//4
f 131//4 175//4 174//4
f 148//5 222//5 221//5
f 222//5 138//5 223//5
f 138//5 224//5 223//5
f 224//5 134//5 219//5
f 134//5 220//5 219//5
f 220//5 145//5 216//5
f 216//5 148//5 217//5
f 148//5 138//5 222//5
f 138//5 134//5 224//5
f 134//5 145//5 220//5
f 216//5 145//5 148//5
usemtl Dots
f 5//7 1//8 6//6
f 3//9 4//10 6//6
f 1//8 2//11 6//6
f 4//10 5//7 6//6
f 2//11 3//9 6//6
f 11//12 7//13 12//4
f 9//14 10//15 12//4
f 7//13 8//16 12//4
f 10//15 11//12 12//4
f 8//16 9//14 12//4
f 17//17 13//18 18//1
f 15//19 16//20 18//1
f 13//18 14//21 18//1
f 16//20 17//17 18//1
f 14//21 15//19 18//1
f 23//12 19//13 24//4
f 21//14 22//15 24//4
f 19//13 20//16 24//4
f 22//15 23//12 24//4
f 20//16 21//14 24//4
f 29//12 25//13 30//4
f 27//14 28//15 30//4
f 25//13 26//16 30//4
f 28//15 29//12 30//4
f 26//16 27//14 30//4
f 35//17 31//18 36//1
f 33//19 34//20 36//1
f 31//18 32//21 36//1
f 34//20 35//17 36//1
f 32//21 33//19 36//1
f 41//17 37//18 42//1
f 39//19 40//20 42//1
f 37//18 38//21 42//1
f 40//20 41//17 42//1
f 38//21 39//19 42//1
f 47//22 48//1 43//18
f 45//23 48//1 46//24
f 43//18 48//1 44//25
f 46//24 48//1 47//22
f 44//25 48//1 45//23
f 53//22 54//1 49//18
f 51//23 54//1 52//24
f 49//18 54//1 50//25
f 52//24 54//1 53//22
f 50//25 54//1 51//23
f 59//26 55//27 60//3
f 57//28 58//29 60//3
f 55//27 56//30 60//3
f 58//29 59//26 60//3
f 56//30 57//28 60//3
f 65//26 61//27 66//3
f 63//28 64//29 66//3
f 61//27 62//30 66//3
f 64//29 65//26 66//3
f 62//30 63//28 66//3
f 71//31 72//3 67//27
f 69//32 72//3 70//33
f 67//27 72//3 68//34
f 70//33 72//3 71//31
f 68//34 72//3 69//32
f 77//31 78//3 73//27
f 75//32 78//3 76//33
f 73//27 78//3 74//34
f 76//33 78//3 77//31
f 74//34 78//3 75//32
f 83//35 79//36 84//5
f 81//37 82//38 84//5
f 79//36 80//39 84//5
f 82//38 83//35 84//5
f 80//39 81//37 84//5
f 89//35 85//36 90//5
f 87//37 88//38 90//5
f 85//36 86//39 90//5
f 88//38 89//35 90//5
f 86//39 87//37 90//5
f 95//40 91//41 96//2
f 93//42 94//43 96//2
f 91//41 92//44 96//2
f 94//43 95//40 96//2
f 92//44 93//42 96//2
f 101//40 97//41 102//2
f 99//42 100//43 102//2
f 97//41 98//44 102//2
f 100//43 101//40 102//2
f 98//44 99//42 102//2
f 107//45 108//2 103//41
f 105//46 108//2 106//47
f 103//41 108//2 104//48
f 106//47 108//2 107//45
f 104//48 108//2 105//46
f 113//45 114//2 109//41
f 111//46 114//2 112//47
f 109//41 114//2 110//48
f 112//47 114//2 113//45
f 110//48 114//2 111//46
f 119//40 115//41 120//2
f 117//42 118//43 120//2
f 115//41 116//44 120//2
f 118//43 119//40 120//2
f 116//44 117//42 120//2
f 125//45 126//2 121//41
f 123//46 126//2 124//47
f 121//41 126//2 122//48
f 124//47 126//2 125//45
f 122//48 126//2 123//46
